<svg width="25" height="16" viewBox="0 0 25 16" fill="none" xmlns="http://www.w3.org/2000/svg">
<path d="M23.8596 7.69069L16.6721 1.12818C16.4849 0.957272 16.1817 0.957272 15.9946 1.12818C15.8074 1.2991 15.8074 1.57595 15.9946 1.74682L22.3641 7.56251H1.47918C1.21432 7.56251 1 7.7582 1 8.00003C1 8.24185 1.21432 8.43754 1.47918 8.43754H22.3641L15.9946 14.2532C15.8074 14.4241 15.8074 14.701 15.9946 14.8718C16.0881 14.9573 16.2108 15 16.3334 15C16.4559 15 16.5785 14.9573 16.6722 14.8718L23.8596 8.30932C24.0468 8.13845 24.0468 7.8616 23.8596 7.69069Z" fill="#FB9B21" stroke="#FB9B21" stroke-width="2"/>
</svg>
