<svg width="40" height="27" viewBox="0 0 40 27" fill="none" xmlns="http://www.w3.org/2000/svg">
<path d="M39.7559 12.7442L27.2559 0.24416C26.9303 -0.0813867 26.403 -0.0813867 26.0775 0.24416C25.7519 0.569707 25.7519 1.09705 26.0775 1.42252L37.155 12.5H0.833359C0.372734 12.5 0 12.8728 0 13.3334C0 13.794 0.372734 14.1667 0.833359 14.1667H37.155L26.0775 25.2442C25.7519 25.5697 25.7519 26.097 26.0775 26.4225C26.2402 26.5852 26.4535 26.6667 26.6667 26.6667C26.8799 26.6667 27.0931 26.5852 27.2559 26.4225L39.7559 13.9225C40.0814 13.597 40.0814 13.0697 39.7559 12.7442Z" fill="white"/>
</svg>
