<svg enable-background="new 0 0 1000 1000" viewBox="0 0 1000 1000" xmlns="http://www.w3.org/2000/svg"><path fill="#F3D15A" d="m974.1 463.6-180.7 154.9c-11.4 11.1-16.6 27.1-13.9 42.7l42.7 248.8c3.3 19.7 0 33.8-16.2 45.6-9.1 6.7-20 10-30.9 10-8.4 0-16.7-2-24.4-6l-228.2-123c-14.1-7.4-30.9-7.4-44.9 0l-218.6 123c-17.7 9.3-39.2 7.7-55.4-4-16.2-11.8-29.1-25.9-25.7-45.6l52.3-253.9c2.7-15.7-2.5-31.6-13.9-42.7l-190.4-149.8c-14.4-14-19.5-34.8-13.4-53.9 6.2-19 22.6-32.9 42.4-35.8l247.6-43.5c15.7-2.3 29.3-12.2 36.3-26.4l114-240.5c8.8-18 27.1-29.3 47.1-29.3s38.2 11.3 47.1 29.3l109.5 240.5c7 14.2 20.6 24.1 36.3 26.4l252.2 43.6c19.8 2.9 36.2 16.7 42.4 35.8 6.2 19 1 39.9-13.3 53.8z"/></svg>