<svg enable-background="new 0 0 58.999 58.999" height="512" viewBox="0 0 58.999 58.999" width="512" xmlns="http://www.w3.org/2000/svg"><g fill="#09f"><path d="m55.999 29.242h-15.036c.058-.381.004-.776-.192-1.121-.308-.542-.886-.879-1.509-.879h-37.527c-.623 0-1.201.337-1.509.879-.309.545-.301 1.217.019 1.754l1.631 2.732c.355.596.542 1.277.542 1.971v.463c0 3.419 2.769 6.201 6.172 6.201h23.814c3.336 0 6.055-2.675 6.162-6h17.431c1.654 0 3-1.346 3-3s-1.344-3-2.998-3zm-23.593 10h-23.815c-1.02 0-1.944-.385-2.67-1h11.077c.552 0 1-.447 1-1s-.448-1-1-1h-12.384c-.096-.32-.158-.653-.175-1h8.845c.552 0 1-.447 1-1s-.448-1-1-1h-9.031c-.137-.581-.351-1.142-.659-1.659l-1.397-2.341h36.603l-1.397 2.341c-.122.205-.229.42-.325.64-.057.13-.102.265-.149.399-.028.082-.06.161-.085.244-.055.179-.097.361-.134.544-.008.039-.017.077-.024.116-.037.2-.062.401-.077.605-.001.014-.004.027-.005.041l-.075 1.069h.03c-.108 2.222-1.921 4.001-4.153 4.001zm23.593-6h-17.173c.004-.011.008-.023.012-.034.076-.205.167-.402.276-.586.002-.004.004-.008.006-.012l.815-1.367h16.063c.552 0 1 .448 1 1s-.448.999-.999.999z"/><path d="m37.999 52.242h-4.904c1.745-1.328 2.726-2.29 2.883-3.472.17-1.285-.632-2.319-1.961-4.032-.259-.333-.542-.697-.845-1.099l-.603-.798-.798.603c-1.823 1.377-2.841 2.354-3.001 3.563-.17 1.285.632 2.319 1.961 4.032.259.333.542.697.845 1.099l.078.104h-10.308c1.745-1.328 2.726-2.29 2.883-3.472.17-1.285-.632-2.319-1.961-4.032-.259-.333-.542-.697-.845-1.099l-.603-.798-.798.603c-1.823 1.377-2.841 2.354-3.001 3.563-.17 1.285.632 2.319 1.961 4.032.259.333.542.697.845 1.099l.078.104h-10.559c1.745-1.328 2.726-2.29 2.883-3.472.17-1.285-.632-2.319-1.961-4.032-.259-.333-.542-.697-.845-1.099l-.603-.798-.798.603c-1.823 1.377-2.841 2.354-3.001 3.563-.17 1.285.632 2.319 1.961 4.032.259.333.542.697.845 1.099l.078.104h-3.906c-.552 0-1 .447-1 1s.448 1 1 1h34c.552 0 1-.447 1-1s-.448-1-1-1zm-7.247-4.972c.053-.401.702-1.02 1.441-1.62.083.108.165.213.244.314.94 1.211 1.619 2.086 1.559 2.543-.053.401-.702 1.02-1.441 1.62-.083-.108-.165-.213-.244-.314-.941-1.211-1.62-2.086-1.559-2.543zm-11.75 0c.053-.401.702-1.02 1.441-1.62.083.108.165.213.244.314.94 1.211 1.619 2.086 1.559 2.543-.053.401-.702 1.02-1.441 1.62-.083-.108-.165-.213-.244-.314-.94-1.211-1.619-2.086-1.559-2.543zm-12 0c.053-.401.702-1.02 1.441-1.62.083.108.165.213.244.314.94 1.211 1.619 2.086 1.559 2.543-.053.401-.702 1.02-1.441 1.62-.083-.108-.165-.213-.244-.314-.94-1.211-1.619-2.086-1.559-2.543z"/><path d="m9.24 18.485c0 1.868.729 3.627 2.052 4.949.195.195.451.293.707.293s.512-.098.707-.293c.391-.391.391-1.023 0-1.414-.945-.945-1.466-2.201-1.466-3.535 0-1.335.521-2.591 1.466-3.536 1.323-1.322 2.052-3.081 2.052-4.95 0-1.868-.729-3.627-2.052-4.949-.391-.391-1.023-.391-1.414 0s-.391 1.023 0 1.414c.945.945 1.466 2.201 1.466 3.535 0 1.335-.521 2.591-1.466 3.536-1.324 1.322-2.052 3.081-2.052 4.95z"/><path d="m21.481 18.485c0 1.868.729 3.627 2.052 4.949.195.195.451.293.707.293s.512-.098.707-.293c.391-.391.391-1.023 0-1.414-.945-.945-1.466-2.201-1.466-3.535 0-1.335.521-2.591 1.466-3.536 1.323-1.322 2.052-3.081 2.052-4.95 0-1.868-.729-3.627-2.052-4.949-.391-.391-1.023-.391-1.414 0s-.391 1.023 0 1.414c.945.945 1.466 2.201 1.466 3.535 0 1.335-.521 2.591-1.466 3.536-1.323 1.322-2.052 3.081-2.052 4.95z"/></g></svg>