<svg enable-background="new 0 0 53.43 53.43" height="512" viewBox="0 0 53.43 53.43" width="512" xmlns="http://www.w3.org/2000/svg"><g fill="#fff"><path d="m24.056 5.986c.066-1.096-.741-2.047-1.8-2.121-.512-.046-.996.131-1.383.469-.398.35-.646.859-.68 1.4-.066 1.096.741 2.047 1.8 2.121.045.004.09.005.134.005.459 0 .898-.166 1.25-.476.4-.35.647-.859.679-1.398zm-2.001-.101.048-.018.955.058z"/><path d="m52.382 27.246-3.22-6.326 1.331-.875.183-.154c.806-.867 1.198-2.051 1.077-3.245-.116-1.141-.695-2.164-1.59-2.812l-5.763-4.578c.037-.157.064-.282.08-.359.43-1.207.327-2.534-.285-3.655-.586-1.071-1.582-1.825-2.733-2.07l-11.269-1.776c-.436-.092-.885-.101-1.338-.032-.019-.014-.035-.03-.054-.043-3.461-2.429-9.134-.778-9.374-.705l-12.564 6.067c-2.559-1.281-4.204-3.199-4.083-5.188.033-.55-.386-1.025-.938-1.058-.531-.008-1.025.387-1.059.937-.152 2.508 1.398 4.827 3.992 6.465-.255.278-.427.631-.46 1.03-.054.629.216 1.22.722 1.58 2.688 1.914 9.496 6.19 16.632 6.19.375 0 .751-.012 1.127-.036.222-.014.432-.043.646-.067l.078.083c.078.083.156.164.241.241l3.305 4.041c-.65.457-1.438.731-2.292.731-.553 0-1 .447-1 1s.447 1 1 1c1.464 0 2.805-.528 3.848-1.402.87.51 1.858.79 2.857.79.084 0 .169-.01.253-.014-1.081 1.584-2.9 2.626-4.958 2.626-.553 0-1 .447-1 1s.447 1 1 1c2.822 0 5.302-1.472 6.726-3.685l.569 1.863.068.169c.187.36.435.663.707.938l-.398 1.664-.025.177c-.063 1.137.408 2.224 1.262 2.909.25.201.525.351.811.468l-.677.785-.103.145c-.511.862-.589 1.912-.209 2.807.017.039.043.07.061.108-1.734.495-3.486.835-4.745.906-1.342.073-2.549 1.03-2.934 2.326-.295.989.001 1.955.772 2.521.861.631 2.277.515 4.507.247.835-.1 1.696-.211 2.188-.17.143.01.252.054.286.116s.034.207-.077.41c-.151.278-.356.623-.589 1.017-1.408 2.379-3.537 5.975-2.782 8.503.27.902 1.055 1.504 2.051 1.569.065.004.13.006.195.006 1.267 0 2.49-.796 3.024-1.99 1.042-2.332 4.035-5.869 7.203-9.613l.655-.775c.072-.085.275-.302.545-.59.224-.24.494-.531.772-.832.005 0 .01.002.014.002.626 0 1.251-.2 1.782-.582.758-.544 1.241-1.386 1.328-2.31l.006-.066-.177-4.492.193-.002.261-.037c.971-.272 1.787-.966 2.241-1.903.459-.953.495-2.043.097-2.995zm-3.445-11.831.042.031c.438.313.725.824.783 1.402.06.585-.114 1.161-.479 1.599l-10.38 6.83-.183.154c-.135.145-.289.254-.449.346-.038.022-.077.042-.116.061-.154.073-.313.129-.477.154-.01.001-.02.006-.031.008-.183.024-.369.014-.55-.025-.021-.004-.042-.011-.063-.016-.18-.046-.357-.116-.521-.226l-.058-.039c-.199-.146-.373-.335-.505-.565l-.927-3.037c.116-.052.223-.113.336-.168 4.95-2.386 7.383-7.495 8.436-10.592zm-42.399-6.354.318-.154c1.654.688 3.56 1.147 5.626 1.292.023.001.047.002.07.002.521 0 .96-.403.997-.931.038-.551-.378-1.028-.929-1.067-1.115-.078-2.184-.269-3.185-.544l10.637-5.149c1.443-.412 5.398-1.082 7.578.447.177.124.319.278.468.426.108.108.215.216.308.336.093.121.172.256.251.39.071.121.147.238.207.37.079.177.139.375.197.572.034.115.079.22.106.342.074.334.126.69.149 1.078l.013.112c0 .002.003.017.006.042.002.012.004.032.006.049s.004.032.007.054c.016.135.038.357.049.644v.001c.003.094.006.195.006.302v.006c0 .106-.001.215-.004.328 0 .009 0 .017-.001.026-.004.111-.01.227-.018.347-.001.012-.001.023-.002.035-.009.118-.02.239-.034.363-.002.016-.003.031-.005.047-.015.122-.033.247-.053.374-.003.019-.006.038-.009.058-.021.125-.046.251-.075.379-.005.024-.01.048-.016.072-.029.125-.062.25-.098.377-.008.028-.016.056-.025.084-.037.123-.078.247-.122.37-.012.033-.024.065-.036.098-.045.119-.094.238-.147.357-.017.038-.035.075-.052.113-.053.113-.11.226-.172.337-.024.043-.049.085-.074.128-.061.105-.126.21-.195.313-.076.114-.153.227-.24.337-1.122 1.423-2.933 2.225-5.382 2.384-6.597.451-13.254-3.555-16.125-5.547zm23.403 11.606c.526-.892.833-1.927.833-3.035 0-.553-.447-1-1-1s-1 .447-1 1c0 .615-.151 1.19-.399 1.711l-2.368-2.894c1.775-.661 3.094-1.81 3.93-3.429.004-.006.007-.012.011-.019.096-.143.183-.288.268-.433.02-.034.042-.068.061-.103.082-.147.157-.295.228-.444.016-.034.034-.067.049-.101.07-.15.133-.3.192-.451.013-.032.026-.065.039-.097.058-.152.11-.302.158-.453.01-.031.02-.062.03-.093.047-.152.089-.302.127-.453.007-.028.015-.057.022-.085.037-.152.07-.301.099-.449.005-.025.01-.05.015-.075.028-.15.053-.297.074-.442.003-.022.006-.043.009-.064.02-.146.037-.29.051-.43.002-.018.003-.036.005-.054.013-.142.024-.28.031-.414.001-.014.001-.027.002-.041.007-.135.012-.265.014-.391 0-.012 0-.024 0-.036.002-.126.002-.247 0-.362v-.014c-.002-.119-.005-.231-.011-.336v-.01c-.021-.428-.061-.737-.08-.865-.001-.024-.006-.045-.007-.069-.017-.245-.041-.485-.075-.716-.024-.159-.059-.31-.091-.463-.019-.088-.032-.18-.053-.266-.049-.199-.109-.389-.173-.576-.011-.033-.019-.068-.031-.1-.073-.206-.158-.403-.25-.595-.005-.01-.008-.02-.012-.03l10.431 1.645c.579.13 1.064.508 1.37 1.067.347.634.397 1.389.14 2.071l-.047.165c-.006.035-.244 1.21-.851 2.832-.033.089-.066.177-.102.27-.032.083-.066.167-.1.252-.069.171-.141.346-.219.525-.01.022-.019.044-.029.067-1.048 2.401-2.87 5.439-5.83 7.251-.011.007-.023.014-.035.021-.196.119-.405.225-.611.333.005-.119.018-.236.018-.356 0-.553-.447-1-1-1s-1 .447-1 1c0 .407-.042.805-.119 1.19-.14.038-.278.08-.422.113-.77.175-1.577.066-2.292-.269zm13.852 19.093-.655.774c-3.262 3.855-6.344 7.498-7.502 10.089-.241.539-.822.851-1.264.805-.226-.015-.25-.097-.265-.146-.504-1.69 1.507-5.087 2.587-6.912.247-.416.463-.782.624-1.076.429-.786.456-1.636.075-2.331-.37-.674-1.064-1.093-1.904-1.15-.109-.007-.224-.011-.344-.011-.629 0-1.404.094-2.218.191-.942.112-2.696.325-3.086.126-.028-.021-.114-.084-.038-.339.124-.419.58-.87 1.126-.9 1.736-.096 4.179-.614 6.45-1.365.03.009.062.018.094.024l6.866 1.625c-.269.29-.471.507-.546.596zm3.971-3.15c-.046.325-.225.62-.496.815-.144.103-.441.261-.801.185l-.03-.006-8.493-2.008c-.033-.011-.063-.025-.151-.063l-.114-.048c-.187-.118-.287-.286-.334-.395-.125-.296-.105-.634.052-.94l1.605-1.862 8.588-.086zm2.721-7.243c-.187.385-.5.676-.871.813l-.351.003-6.558.066-4.371.043h-.003l-.251.002-.033.039c-.399.104-.794.026-1.111-.227-.337-.271-.524-.69-.52-1.159l.243-1.019c.055.012.11.016.165.025.041.007.077.025.118.031.054.007.107.006.161.011.011.001.021.001.032.002.102.009.204.021.304.021.038 0 .075-.01.113-.011.165-.006.33-.022.493-.05.109-.018.214-.046.32-.074.097-.025.192-.056.287-.09.111-.039.221-.079.328-.13.151-.07.298-.151.441-.242.06-.039.118-.079.177-.121.174-.124.342-.259.497-.415l7.387-4.86 3.067 6.021c.164.418.141.898-.064 1.321z"/></g></svg>