<svg enable-background="new 0 0 47.52 47.52" viewBox="0 0 47.52 47.52" xmlns="http://www.w3.org/2000/svg"><path d="m39.179 16.245 6.317.059.08-.013c.455-.07.863-.287 1.186-.632.48-.519.679-1.255.531-1.971-.151-.735-.641-1.353-1.309-1.648-.451-.201-.619-.661-.844-1.394-.242-.79-.647-2.146-2.22-2.008-.562.06-1.049-.116-1.365-.464-.288-.317-.422-.77-.374-1.275.1-1.072-.216-2.069-.889-2.809-.662-.727-1.601-1.127-2.644-1.127-.076 0-.153.002-.246.007-.013-.064-.026-.133-.037-.193-.143-.755-.438-2.313-2.611-2.607-.205-.066-.603-.17-1.059-.17-1.281 0-2.159.828-2.297 2.257l-.023 6.263h-10.21c-1.59 0-3.132.193-4.622.53-.534-2.012-1.418-3.916-2.68-5.658l-.496-.685-.758.376c-.19.093-4.669 2.352-5.904 6.237-.5 1.571-.405 3.168.279 4.76-4.171 3.838-6.805 9.323-6.805 15.424v18.016h17.876c5.643 0 10.947-2.197 14.937-6.188.485-.485.941-.99 1.372-1.512.464.037.928.063 1.389.063 3.615 0 6.97-1.103 9.969-3.275l.685-.496-.376-.758c-.115-.233-2.686-5.299-7.065-6.105.126-.94.214-1.889.213-2.853zm-30.574-3.538c-.289-.939-.286-1.855.005-2.773.708-2.237 2.954-3.888 4.141-4.629.859 1.338 1.491 2.768 1.889 4.267-.904.297-1.774.663-2.62 1.075-.205.099-.414.191-.615.297-.28.148-.549.311-.822.47-.279.163-.556.327-.827.503-.246.16-.485.327-.723.497-.142.1-.29.189-.428.293zm.467 23.798c-.566.566-1.32.879-2.121.879s-1.555-.313-2.121-.879-.879-1.32-.879-2.121c0-.802.313-1.556.879-2.122 1.133-1.131 3.109-1.132 4.242.001.566.565.879 1.319.879 2.121 0 .801-.312 1.554-.879 2.121zm11.879 4.393c0-7.72-6.28-14-14-14v-2c8.822 0 16 7.178 16 16zm3.255-3.254c0-7.72-6.28-14-14-14v-2c8.822 0 16 7.178 16 16zm3.109-3.11c0-7.72-6.28-14-14-14v-2c8.822 0 16 7.178 16 16zm-10.745-17.255v-2c8.822 0 16 7.178 16 16h-2c0-7.719-6.28-14-14-14zm22.044 13.928c2.521.471 4.392 3.003 5.193 4.287-2.45 1.581-5.147 2.383-8.029 2.388 1.301-1.999 2.233-4.197 2.79-6.512.014-.055.033-.108.046-.163z"/></svg>