<svg enable-background="new 0 0 47.518 47.518" height="512" viewBox="0 0 47.518 47.518" width="512" xmlns="http://www.w3.org/2000/svg"><g fill="#fff"><path d="m9.071 32.26c-1.171-1.168-3.073-1.168-4.242 0-.566.566-.879 1.32-.879 2.122 0 .801.313 1.555.879 2.121.585.585 1.353.877 2.121.877s1.536-.292 2.121-.877c.566-.566.879-1.32.879-2.121 0-.802-.312-1.555-.879-2.122zm-1.414 2.829c-.391.391-1.023.391-1.414 0-.188-.189-.293-.44-.293-.707 0-.268.104-.518.293-.707.195-.195.451-.292.707-.292s.512.097.707.292v.001c.189.188.293.438.293.706 0 .266-.104.517-.293.707z"/><path d="m47.292 13.687c-.151-.735-.641-1.353-1.309-1.648-.451-.201-.619-.661-.844-1.394-.229-.752-.646-2.142-2.22-2.008-.533.053-1.001-.099-1.321-.418-.319-.319-.468-.789-.418-1.321.105-1.136-.248-2.173-.996-2.922-.706-.705-1.671-1.046-2.782-1.008-.013-.063-.026-.133-.037-.192-.143-.756-.438-2.314-2.612-2.607-.384-.122-1.437-.376-2.311.16-.417.257-.936.782-1.045 1.927l-.023 6.263h-10.21c-1.59 0-3.132.193-4.622.53-.534-2.012-1.418-3.916-2.68-5.658l-.496-.685-.758.374c-.19.094-4.669 2.353-5.904 6.238-.5 1.571-.405 3.168.279 4.76-4.171 3.838-6.805 9.323-6.805 15.424v18.015h17.876c5.643 0 10.947-2.197 14.937-6.188.484-.484.94-.99 1.371-1.511.44.036.896.062 1.386.062 2.821 0 6.408-.692 9.973-3.275l.685-.496-.376-.758c-.115-.233-2.686-5.299-7.065-6.105.126-.94.214-1.889.213-2.853v-10.15l6.317.059.08-.013c.455-.07.863-.287 1.183-.629l.003-.003c.48-.518.678-1.255.531-1.97zm-38.688-.982c-.289-.939-.286-1.855.005-2.773.708-2.237 2.954-3.888 4.141-4.629.859 1.338 1.491 2.768 1.889 4.267-.904.297-1.774.663-2.62 1.075-.205.099-.414.191-.615.297-.28.148-.549.311-.822.47-.279.163-.556.327-.827.503-.246.16-.485.327-.723.497-.142.1-.29.189-.428.293zm30.009 18.5c2.521.471 4.392 3.002 5.193 4.287-2.886 1.858-5.741 2.382-8.029 2.387 1.301-1.999 2.233-4.197 2.79-6.511.014-.055.033-.108.046-.163zm6.682-16.905-8.117-.074v12.168c0 1.157-.116 2.295-.315 3.41l-.026.141c-.057.302-.126.603-.198.902-.031.129-.063.257-.096.385-.657 2.502-1.826 4.876-3.432 6.928l-.387.494c-.364.434-.741.858-1.146 1.263-3.612 3.612-8.415 5.602-13.523 5.602h-15.877v-16.016c0-5.809 2.629-11.01 6.752-14.496 1.563-1.32 3.298-2.366 5.182-3.117.015-.006.03-.01.044-.016.621-.246 1.258-.46 1.91-.641 1.625-.454 3.33-.716 5.099-.716h12.202l.026-8.159c.021-.214.074-.312.098-.326.099-.062.445-.037.677.048l.25.062c.81.09.854.32.982 1.006.104.541.378 1.975 2.049 1.824.531-.05 1.001.099 1.322.418.319.32.468.79.418 1.322-.105 1.136.248 2.173.996 2.921.726.725 1.733 1.074 2.838 1.003.067.145.147.406.205.593.249.816.626 2.05 1.943 2.637.095.042.146.144.162.225.009.041.021.143-.039.208zm.136.153v-.028l.597.553z"/><path d="m6.95 24.896v2c7.72 0 14 6.28 14 14h2c0-8.822-7.178-16-16-16z"/><path d="m10.205 21.642v2c7.72 0 14 6.28 14 14h2c0-8.823-7.178-16-16-16z"/><path d="m13.314 18.532v2c7.72 0 14 6.28 14 14h2c0-8.822-7.177-16-16-16z"/><path d="m16.569 15.277v2c7.72 0 14 6.28 14 14h2c0-8.822-7.177-16-16-16z"/></g></svg>