<svg xmlns="http://www.w3.org/2000/svg" width="33" height="32"><defs><filter id="a" x="20" y="349" width="33" height="32" filterUnits="userSpaceOnUse"><feFlood result="flood" flood-color="#f50049"/><feComposite result="composite" operator="in" in2="SourceGraphic"/><feBlend result="blend" in2="SourceGraphic"/></filter></defs><path d="M51.239 356.211h-4.577a4.387 4.387 0 0 0 1.2-3.016v-.228a4.05 4.05 0 0 0-2.136-3.423 4.31 4.31 0 0 0-4.187 0l-2.08 1.156a7.182 7.182 0 0 0-2.959 3.085 7.181 7.181 0 0 0-2.959-3.085l-2.082-1.151a4.311 4.311 0 0 0-4.187 0 4.05 4.05 0 0 0-2.136 3.423v.228a4.388 4.388 0 0 0 1.2 3.016h-4.575a1.745 1.745 0 0 0-1.761 1.72v4.094a1.745 1.745 0 0 0 1.761 1.725h.806v15.52a1.745 1.745 0 0 0 1.76 1.725h24.346a1.745 1.745 0 0 0 1.761-1.725v-15.52h.806A1.745 1.745 0 0 0 53 362.03v-4.094a1.745 1.745 0 0 0-1.761-1.725zm-11.06-4.264l2.082-1.151a2.831 2.831 0 0 1 2.748 0 2.627 2.627 0 0 1 1.388 2.218v.18a3.051 3.051 0 0 1-3.078 3.016h-6.044a5.686 5.686 0 0 1 2.905-4.263zM26.6 353.015a2.628 2.628 0 0 1 1.39-2.215 2.834 2.834 0 0 1 2.748 0l2.082 1.151a5.686 5.686 0 0 1 2.9 4.264h-6.042A3.051 3.051 0 0 1 26.6 353.2v-.185zm6.6 12.926h-3.019a.719.719 0 1 0 0 1.437H33.2v12.185h-8.873a.291.291 0 0 1-.294-.288v-15.52H33.2v2.186zm0-3.623H21.761a.291.291 0 0 1-.294-.288v-4.094a.291.291 0 0 1 .294-.288H33.2v4.67zm5.133 17.245h-3.666v-21.915h3.666v21.915zm10.633-.288a.291.291 0 0 1-.294.288H39.8v-12.185h2.794a.719.719 0 1 0 0-1.437H39.8v-2.186h9.167v15.52zm2.567-17.245a.291.291 0 0 1-.294.288H39.8v-4.67h11.44a.291.291 0 0 1 .294.288v4.094zm-5.456 5.348h.073a.719.719 0 1 0 0-1.437h-.072a.719.719 0 1 0 0 1.437zm-19.453 0h.076a.719.719 0 1 0 0-1.437h-.076a.719.719 0 1 0 0 1.437z" transform="translate(-20 -349)" fill-rule="evenodd" filter="url(#a)"/></svg>