<svg width="18" height="13" viewBox="0 0 18 13" fill="none" xmlns="http://www.w3.org/2000/svg">
<path d="M0.361663 1.05476C2.74059 3.06946 6.91488 6.61392 8.14176 7.71909C8.30646 7.86825 8.48311 7.94408 8.6665 7.94408C8.84951 7.94408 9.02586 7.86896 9.19019 7.72051C10.4181 6.61426 14.5924 3.06946 16.9714 1.05476C17.1195 0.929567 17.1421 0.709515 17.0221 0.556461C16.7449 0.202786 16.3317 0 15.8887 0H1.44429C1.00137 0 0.588046 0.202787 0.310882 0.556495C0.190971 0.709516 0.213551 0.929567 0.361663 1.05476Z" fill="#4178E2"/>
<path d="M17.1239 2.1467C16.9959 2.08712 16.8453 2.10791 16.7388 2.19891C14.1006 4.43538 10.7335 7.30208 9.67416 8.25667C9.07959 8.79339 8.25439 8.79339 7.65842 8.25596C6.52925 7.23857 2.74815 4.02419 0.594547 2.19887C0.487331 2.10787 0.336409 2.0878 0.209456 2.14667C0.0818255 2.20595 0 2.33361 0 2.47431V11.5557C0 12.3523 0.647799 13.0001 1.44446 13.0001H15.8889C16.6855 13.0001 17.3333 12.3523 17.3333 11.5557V2.47431C17.3333 2.33361 17.2515 2.20561 17.1239 2.1467Z" fill="#4178E2"/>
</svg>
