<svg width="16" height="24" viewBox="0 0 16 24" fill="none" xmlns="http://www.w3.org/2000/svg">
<path d="M8.00004 0C3.5889 0 0 3.5889 0 8.00004C0 9.32427 0.331079 10.6372 0.960472 11.8018L7.56256 23.7423C7.65045 23.9015 7.81793 24.0001 8.00004 24.0001C8.18215 24.0001 8.34964 23.9015 8.43753 23.7423L15.0421 11.7979C15.669 10.6372 16.0001 9.32422 16.0001 8C16.0001 3.5889 12.4112 0 8.00004 0ZM8.00004 12C5.79447 12 4.00004 10.2056 4.00004 8.00004C4.00004 5.79447 5.79447 4.00004 8.00004 4.00004C10.2056 4.00004 12 5.79447 12 8.00004C12 10.2056 10.2056 12 8.00004 12Z" fill="#4178E2"/>
</svg>
