<svg width="12" height="18" viewBox="0 0 12 18" fill="none" xmlns="http://www.w3.org/2000/svg">
<path d="M6 0C2.69166 0 0 2.69167 0 6.00001C0 6.99318 0.248308 7.9779 0.72035 8.85132L5.67189 17.8066C5.73781 17.926 5.86342 18 6 18C6.13658 18 6.2622 17.926 6.32811 17.8066L11.2815 8.84837C11.7517 7.9779 12 6.99314 12 5.99998C12 2.69167 9.30834 0 6 0ZM6 9C4.34583 9 3.00002 7.65418 3.00002 6.00001C3.00002 4.34584 4.34583 3.00002 6 3.00002C7.65417 3.00002 8.99998 4.34584 8.99998 6.00001C8.99998 7.65418 7.65417 9 6 9Z" fill="#00CD66"/>
</svg>
