<svg width="187" height="48" viewBox="0 0 187 48" fill="none" xmlns="http://www.w3.org/2000/svg">
<path d="M17.7907 25.8288H10.9871L14.6038 14.1234L17.7907 25.8288ZM7.80014 37.6766L9.94866 30.5252H18.686L20.8345 37.6766H28.0678L20.369 10.5655C19.9393 8.78655 19.0799 8.21729 17.182 8.21729H6.51103V10.6722H7.37044C8.65955 10.6722 9.3041 11.0636 9.3041 12.0598C9.3041 12.6646 9.3041 13.0916 8.65955 14.5503L0.960693 37.6766" fill="#B5B5B5"/>
<path d="M37.2058 37.6766V10.3876C37.2058 8.96444 36.3464 8.21729 34.8783 8.21729H28.2537V10.6722H28.6834C29.9725 10.6722 30.617 11.2059 30.617 12.3444V37.6766H37.2058ZM49.1301 37.6766V10.3876C49.1301 8.96444 48.2707 8.21729 46.8025 8.21729H40.1779V10.6722H40.6076C41.8967 10.6722 42.5413 11.2059 42.5413 12.3444V37.6766" fill="#B5B5B5"/>
<path d="M61.2924 10.8195C61.2924 8.86265 59.7884 7.72412 57.4609 7.72412C54.9185 7.72412 53.6294 8.86265 53.6294 10.8195C53.6294 12.8119 54.9185 13.986 57.4609 13.986C59.7884 13.986 61.2924 12.8119 61.2924 10.8195ZM61.0776 37.6815V17.7929C61.0776 16.4054 60.2181 15.6226 58.929 15.6226H52.3044V18.0064H52.7342C54.0233 18.0064 54.453 18.5401 54.453 19.7498V37.6815H61.0776ZM76.8333 26.9723V31.3841C75.5442 32.6649 74.0761 33.3765 72.787 33.3765C71.4979 33.3765 70.8533 32.7717 70.8533 31.0994C70.8533 29.2849 71.283 28.5733 72.787 28.0041C73.8612 27.5771 74.9355 27.2925 76.8333 26.9723ZM67.4515 21.7066L68.096 21.4576C69.8149 20.7816 70.8533 20.5325 72.1424 20.2835C72.787 20.2123 73.6464 20.1056 74.0761 20.1056C76.2246 20.1056 76.8333 20.8172 76.8333 22.7384V23.2721C73.8612 23.7702 73.0018 23.9125 71.283 24.3039C70.4236 24.5174 69.5642 24.802 68.7406 25.1578C65.9833 26.2607 64.6942 28.3599 64.6942 31.7043C64.6942 35.867 66.413 37.8594 70.2446 37.8594C71.7485 37.8594 73.2167 37.5037 74.2909 36.8277C75.3652 36.3295 75.7949 36.0805 77.0482 34.9064V35.5824C77.0482 36.97 77.6928 37.6104 78.9819 37.6104H85.3916V35.3333H85.1768C83.8876 35.3333 83.2431 34.7641 83.2431 33.6256V22.8451C83.2431 17.2237 81.3094 15.3024 75.7949 15.3024C73.8612 15.3024 72.1782 15.5159 70.4594 15.9073C68.7406 16.2986 67.917 16.6188 65.9833 17.6151L67.4515 21.7066ZM95.3822 37.6815V22.7384C96.8862 21.3508 97.9246 20.8172 99.4286 20.8172C100.933 20.8172 101.362 21.4576 101.362 23.699V37.6815H107.987V22.6317C107.987 19.5363 107.557 18.2199 106.698 17.0458C105.623 15.9073 104.37 15.3736 102.437 15.3736C99.8941 15.3736 97.9604 16.2986 94.9883 18.8603V17.6862C94.9883 16.2986 94.3438 15.6226 93.0547 15.6226H86.6449V18.0064H86.8598C88.1489 18.0064 88.7934 18.5401 88.7934 19.7498V37.6815" fill="#B5B5B5"/>
<path d="M128.442 33.5339H118.73L128.199 20.2647V15.6807H114.116C112.416 15.6807 111.688 16.4045 111.688 18.0933V22.1947H114.116V21.7122C114.116 20.5059 114.845 20.0233 116.059 20.0233H121.158L111.445 33.2925V37.8765H128.442" fill="#B5B5B5"/>
<path d="M166.08 36.43V11.5803C166.08 9.65029 165.109 8.92657 163.409 8.92657H157.581V11.5803H158.31C159.281 11.5803 159.767 12.0629 159.767 13.2692V36.43H166.08ZM169.479 36.43H175.55V17.6118C175.55 15.6817 174.578 14.958 172.879 14.958H169.479V36.43ZM156.367 36.43V14.958H152.968C151.025 14.958 150.297 15.6817 150.297 17.6118V36.43H156.367ZM183.077 23.8846C183.077 35.465 174.579 44.1502 162.923 44.1502C151.268 44.1502 142.77 35.7062 142.77 23.8846C142.77 12.3042 151.268 3.61887 162.923 3.61887C174.579 3.61887 183.077 12.3042 183.077 23.8846ZM186.962 23.8846C186.962 10.1329 176.764 -3.8147e-06 162.923 -3.8147e-06C149.326 -3.8147e-06 138.885 10.1329 138.885 23.8846C138.885 37.6363 149.326 47.769 162.923 47.769C176.764 47.769 186.962 37.6363 186.962 23.8846Z" fill="#B5B5B5"/>
</svg>
