<svg width="212" height="33" viewBox="0 0 212 33" fill="none" xmlns="http://www.w3.org/2000/svg">
<path d="M61.5847 26.7951C56.1158 26.7951 51.6829 22.246 51.6829 16.6334C51.6829 11.0215 56.1158 6.47176 61.5854 6.47176C67.0543 6.47176 71.4866 11.0215 71.4866 16.6334C71.4866 22.246 67.0543 26.7951 61.5854 26.7951H61.5847ZM71.5184 28.0838C71.5184 29.0146 73.1067 31.6286 75.0528 31.6286H76.3131C76.8019 31.6286 77.2013 31.227 77.2013 30.7368V2.92768H77.1967C77.1845 2.70042 77.0861 2.48645 76.9219 2.32962C76.7576 2.17279 76.5398 2.08496 76.3131 2.08413H72.4079C71.9353 2.08413 71.5495 2.45969 71.5229 2.92768H71.5184V5.18756C69.1262 2.22863 65.3532 1.00041 61.5698 1.00041C52.9704 1.00041 46 7.9994 46 16.6341C46 25.2687 52.9704 32.2677 61.5698 32.2677C65.3532 32.2677 69.4763 30.7941 71.5184 28.0806V28.0851V28.0838ZM86.5327 24.1017C89.1394 25.9144 91.9854 26.7951 94.7198 26.7951C97.3259 26.7951 100.018 25.4386 100.018 23.0785C100.018 19.9282 94.1493 19.4374 90.4626 18.1793C86.7738 16.9211 83.5972 14.3195 83.5972 10.107C83.5972 3.66189 89.3177 0.999756 94.657 0.999756C98.0397 0.999756 101.529 2.11928 103.793 3.72437C104.572 4.31667 104.097 4.99815 104.097 4.99815L101.937 8.09508C101.695 8.44395 101.192 8.72254 100.661 8.3678C99.2053 7.40189 97.5846 6.47112 94.6563 6.47112C91.0318 6.47112 89.4376 7.98182 89.4376 9.85377C89.4376 12.0993 91.9873 12.8049 94.974 13.5703C100.18 14.9782 105.859 16.6725 105.859 23.0791C105.859 28.7581 100.567 32.2677 94.7198 32.2677C90.2888 32.2677 86.5158 30.9991 83.3515 28.6683C82.6929 28.0057 83.1532 27.3906 83.1532 27.3906L85.3022 24.3093C85.7398 23.7326 86.2909 23.9344 86.5327 24.1017ZM135.147 28.0845C135.147 29.0146 136.735 31.6286 138.681 31.6286H139.942C140.43 31.6286 140.83 31.227 140.83 30.7368V2.92768H140.825C140.813 2.70053 140.714 2.48674 140.55 2.32997C140.386 2.17321 140.168 2.08528 139.942 2.08413H136.036C135.563 2.08413 135.178 2.45969 135.152 2.92768H135.147V5.18756C132.755 2.22863 128.982 1.00041 125.199 1.00041C116.599 1.00041 109.628 7.99939 109.628 16.6334C109.628 25.2674 116.599 32.2671 125.199 32.2671C128.982 32.2671 133.105 30.7935 135.147 28.0799V28.0845H135.147ZM125.214 26.7957C119.744 26.7957 115.311 22.246 115.311 16.6334C115.311 11.0215 119.744 6.47176 125.214 6.47176C130.682 6.47176 135.116 11.0215 135.116 16.6334C135.116 22.246 130.682 26.7951 125.214 26.7951V26.7957ZM175.821 29.04L175.82 14.6508C175.82 6.53946 170.723 1.0668 162.595 1.0668C158.715 1.0668 155.541 3.31952 154.418 5.25461V5.22727L154.411 5.2494C154.409 3.29153 152.827 2.15117 150.877 2.15117H149.623C149.134 2.15117 148.734 2.55342 148.734 3.04419V30.854H148.739C148.765 31.3226 149.151 31.6982 149.623 31.6982H153.528C153.588 31.6982 153.647 31.691 153.703 31.6806C153.729 31.6748 153.753 31.6643 153.779 31.6572C153.808 31.6487 153.838 31.6416 153.865 31.6299C153.901 31.6155 153.932 31.596 153.965 31.5778C153.98 31.568 153.997 31.5615 154.013 31.5517C154.051 31.5253 154.087 31.4962 154.121 31.4645C154.127 31.4587 154.134 31.4548 154.14 31.4496C154.303 31.2934 154.4 31.0802 154.412 30.854H154.418V14.4276C154.418 10.0712 157.935 6.5388 162.275 6.5388C166.614 6.5388 170.132 10.0712 170.132 14.4276L170.135 28.1587L170.136 28.1535C170.136 28.1658 170.139 28.1789 170.139 28.1912V30.854H170.144C170.17 31.3226 170.555 31.6982 171.027 31.6982H174.933C174.993 31.6982 175.051 31.691 175.108 31.6806C175.131 31.6754 175.152 31.6657 175.174 31.6604C175.207 31.6507 175.239 31.6422 175.27 31.6299C175.302 31.6168 175.331 31.598 175.361 31.581C175.38 31.5713 175.399 31.5635 175.417 31.5517C175.453 31.527 175.486 31.499 175.519 31.4704C175.527 31.4639 175.536 31.4574 175.545 31.4489C175.581 31.4138 175.613 31.3747 175.644 31.3343C175.747 31.1954 175.806 31.0293 175.816 30.8566L175.817 30.854H175.821V29.04H175.821ZM206.278 28.0845C206.278 29.0146 207.864 31.6286 209.811 31.6286H211.072C211.56 31.6286 211.961 31.227 211.961 30.7368V2.92768H211.956C211.943 2.70047 211.845 2.48668 211.681 2.32993C211.516 2.17318 211.299 2.08527 211.072 2.08413H207.167C206.941 2.0848 206.723 2.17255 206.558 2.3294C206.394 2.48625 206.295 2.7003 206.283 2.92768H206.278V5.18756C203.884 2.22863 200.112 1.00041 196.328 1.00041C187.73 1.00041 180.758 7.99939 180.758 16.6334C180.758 25.2674 187.73 32.2671 196.328 32.2671C200.112 32.2671 204.234 30.7935 206.276 28.0799L206.278 28.0845ZM196.345 26.7957C190.875 26.7957 186.442 22.246 186.442 16.6334C186.442 11.0215 190.875 6.47176 196.345 6.47176C201.812 6.47176 206.245 11.0215 206.245 16.6334C206.245 22.246 201.812 26.7951 196.345 26.7951V26.7957Z" fill="#B5B5B5"/>
<path d="M27.3885 16.9407C23.184 16.9407 19.7762 20.3116 19.7762 24.4697C19.7762 28.6282 23.184 31.9998 27.3885 31.9998C31.5922 31.9998 35 28.6282 35 24.4697C35 20.3116 31.5922 16.9407 27.3885 16.9407ZM7.6119 16.9411C3.40814 16.9415 0 20.3116 0 24.4701C0 28.6282 3.40814 31.9994 7.6119 31.9994C11.816 31.9994 15.2242 28.6282 15.2242 24.4701C15.2242 20.3116 11.816 16.9411 7.61154 16.9411H7.6119ZM25.1119 7.52908C25.1119 11.6872 21.7041 15.0591 17.5004 15.0591C13.2959 15.0591 9.8881 11.6872 9.8881 7.52908C9.8881 3.37093 13.2959 -0.000244141 17.5004 -0.000244141C21.7041 -0.000244141 25.1115 3.37093 25.1115 7.52908H25.1119Z" fill="#B5B5B5"/>
</svg>
