<svg width="173" height="32" viewBox="0 0 173 32" fill="none" xmlns="http://www.w3.org/2000/svg">
<path d="M152.362 4.17859e-08C152.063 -8.14078e-05 151.775 0.118912 151.564 0.330829C151.352 0.542745 151.232 0.830245 151.232 1.13014V9.04974H172.125L162.611 0.00245288L152.362 4.17859e-08ZM172.891 11.4455C172.891 11.2971 172.862 11.1502 172.805 11.0131C172.748 10.8759 172.665 10.7514 172.56 10.6466C172.455 10.5417 172.331 10.4587 172.194 10.4022C172.056 10.3457 171.91 10.3168 171.761 10.3172H163.854V31.2405L172.887 21.7094L172.891 11.4455ZM161.458 32C161.757 31.9992 162.044 31.8797 162.255 31.6677C162.466 31.4558 162.584 31.1686 162.584 30.8692V22.9506H141.692L151.205 31.9979L161.458 32ZM140.929 20.5557C140.929 20.7041 140.958 20.8511 141.015 20.9883C141.071 21.1255 141.154 21.2501 141.259 21.3551C141.364 21.4601 141.488 21.5434 141.625 21.6003C141.762 21.6571 141.909 21.6864 142.057 21.6864H149.965V0.761606L140.93 10.2903L140.929 20.5557Z" fill="#B5B5B5"/>
<path d="M45.1639 3.81824V13.4806H31.7208V3.81824L26.8263 3.81641V28.1795H31.7208V17.7129H45.1639V28.1795H50.0673V3.81824H45.1639ZM110.296 3.81824V28.1752L131.777 28.174L129.055 23.8877H115.208V17.7129H128.616V13.5824H115.208V8.00585H129.032L131.699 3.81824H110.296ZM8.6289 3.81518C3.53482 3.81518 0.961914 6.91372 0.961914 11.426V20.5214C0.961914 25.7417 4.27571 28.1801 8.60257 28.1801L23.9604 28.177L21.1153 23.7248H9.55042C7.09477 23.7248 6.02507 22.836 6.02507 20.0821V11.8314C6.02507 9.1688 6.92485 8.13002 9.61593 8.13002H21.236L23.9693 3.81549L8.6289 3.81518ZM88.8115 3.80813C85.8685 3.80813 82.8566 5.57754 82.8566 10.1318V11.3018C82.8566 16.0466 85.7577 17.8598 88.6578 17.873H98.8451C99.9028 17.873 100.763 18.0484 100.763 19.8402L100.762 21.911C100.735 23.5164 99.9316 23.8877 98.8086 23.8877H85.408L82.6628 28.1737H99.1221C103.094 28.1737 105.788 26.197 105.788 21.6268V19.9478C105.788 15.5302 103.285 13.4456 99.402 13.4456H89.6755C88.5963 13.4456 87.8459 13.1491 87.8459 11.5496L87.8447 9.86571C87.8447 8.50347 88.3615 8.00585 89.6176 8.00585L102.379 8.00094L105.047 3.80353L88.8115 3.80813ZM64.2936 3.82192L52.7581 28.177H58.2109L60.4575 23.1472H72.9917L75.2312 28.177H80.7058L69.144 3.82162L64.2936 3.82192ZM66.711 8.87722L71.1438 19.0016H62.306L66.711 8.87722Z" fill="#B5B5B5"/>
</svg>
