<svg width="201" height="48" viewBox="0 0 201 48" fill="none" xmlns="http://www.w3.org/2000/svg">
<path d="M2.96552 11.7184C4.29761 8.04375 6.05554 5.16747 8.23385 3.10048C10.4122 1.0335 12.7379 0 15.2055 0C16.3793 0 17.6404 0.300754 18.9889 0.907726C20.3374 0.306222 21.5821 0 22.734 0C23.3073 0 23.9679 0.0929608 24.7158 0.27888C25.4637 0.464799 26.0643 0.688997 26.5229 0.946003C27.8713 0.317158 29.1325 0 30.3062 0C32.8012 0 35.1378 1.0499 37.3161 3.14422C39.4944 5.23855 41.2469 8.1203 42.5626 11.784C43.8838 15.4477 44.5444 19.5161 44.5444 24C44.5444 28.4238 43.8892 32.4757 42.5844 36.1504C41.2797 39.825 39.5381 42.7232 37.3598 44.8339C35.1815 46.9446 32.8285 48 30.3062 48C29.7876 48 29.1816 47.918 28.4773 47.7649C27.7731 47.6063 27.1234 47.3821 26.5174 47.0977C25.1689 47.6992 23.9187 48 22.7723 48C22.2536 48 21.6367 47.9125 20.9215 47.743C20.2063 47.568 19.5567 47.3547 18.9834 47.0977C17.5804 47.6992 16.3138 48 15.2001 48C12.6451 48 10.2811 46.9228 8.10282 44.7683C5.92452 42.6138 4.18843 39.6992 2.90001 36.0191C1.61159 32.3445 0.961914 28.3363 0.961914 23.9945C0.961914 19.4887 1.63342 15.393 2.96552 11.7184ZM7.76434 38.1955C9.54411 42.3732 12.0227 45.6159 15.2055 47.9125C18.4484 45.583 20.9488 42.324 22.7122 38.1299C24.4756 33.9357 25.36 29.2276 25.36 23.9945C25.36 19.5707 24.7267 15.5516 23.4656 11.9316C24.0989 10.149 24.7704 8.62884 25.4856 7.36569C26.8068 9.72249 27.7949 12.3144 28.4555 15.1415C29.1161 17.9686 29.4437 20.9214 29.4437 23.9945C29.4437 27.3247 29.056 30.54 28.2808 33.6241C27.5056 36.7136 26.3318 39.4313 24.754 41.7881C25.0707 42.3623 25.4255 42.9091 25.8295 43.4231C25.1962 44.2543 24.6121 44.9597 24.0661 45.5338C23.6348 45.1893 23.2035 44.7738 22.7777 44.2816C22.0625 45.0581 21.3419 45.676 20.6267 46.1353C20.9433 46.4525 21.3146 46.7806 21.7459 47.1251C22.1772 47.4696 22.5211 47.7266 22.7777 47.9016C25.9878 45.6049 28.4773 42.3623 30.2407 38.1846C32.0041 34.0068 32.8885 29.2714 32.8885 23.9891C32.8885 20.2269 32.4245 16.6781 31.4909 13.3479C30.5574 10.0178 29.1488 7.08681 27.2544 4.55502C27.6857 3.95352 28.259 3.26453 28.9741 2.48804C31.5837 4.61518 33.5764 7.62269 34.9522 11.5161C36.328 15.4094 37.0159 19.5653 37.0159 23.9891C37.0159 28.73 36.2406 33.1155 34.6901 37.1511C33.1397 41.1866 30.9614 44.1832 28.1498 46.1353C28.8299 46.7677 29.5483 47.3576 30.3008 47.9016C33.5983 45.5174 36.1096 42.2201 37.8293 38.015C39.549 33.81 40.4116 29.1292 40.4116 23.9891C40.4116 18.674 39.5108 13.9111 37.7037 9.70608C35.8967 5.49556 33.429 2.28571 30.3062 0.0765547C27.178 2.31852 24.7158 5.53383 22.9087 9.72796C21.1017 13.9221 20.2009 18.6794 20.2009 23.9891C20.2009 28.3582 20.8178 32.3773 22.0516 36.0519C21.5657 37.5448 20.9051 39.0704 20.0698 40.6179C18.7214 38.3213 17.7168 35.7403 17.0563 32.8859C16.3957 30.026 16.0681 27.0622 16.0681 23.9891C16.0681 20.6261 16.4612 17.4108 17.2528 14.3377C18.0389 11.2645 19.2236 8.55229 20.8014 6.19549C20.7141 5.99317 20.3428 5.44634 19.6822 4.55502C20.3428 3.69105 20.9324 3.00205 21.4456 2.48804C21.7623 2.7177 22.2045 3.12235 22.7777 3.69651C23.1217 3.35202 23.4929 3.00205 23.8969 2.64115C24.3009 2.28025 24.6285 2.01777 24.885 1.84279C24.2845 1.24129 23.5639 0.650717 22.734 0.0765547C19.6658 2.25837 17.2146 5.43541 15.3802 9.59672C13.5459 13.7635 12.6287 18.5591 12.6287 23.9891C12.6287 27.6692 13.1036 31.1907 14.0481 34.5701C14.9926 37.944 16.4011 40.8968 18.2628 43.4231C17.9188 43.9098 17.3456 44.6152 16.5431 45.5338C13.9335 43.4067 11.9408 40.3828 10.565 36.4621C9.18925 32.5414 8.50136 28.3855 8.50136 23.9891C8.50136 19.1606 9.28751 14.7478 10.8653 10.7396C12.4431 6.73137 14.6104 3.7676 17.362 1.84279C16.6818 1.21043 15.9635 0.620565 15.211 0.0765547C11.9135 2.54819 9.40216 5.85099 7.68245 9.98496C5.96273 14.1189 5.10015 18.7888 5.10015 23.9891C5.09469 29.2823 5.98457 34.0178 7.76434 38.1955ZM63.9908 34.1271C63.9908 35.0731 64.0891 35.7512 64.2911 36.1504C64.4931 36.555 64.9134 36.8284 65.5576 36.9706C66.2019 37.1128 67.2555 37.1839 68.7186 37.1839C70.5803 37.1839 72.0216 36.9597 73.0425 36.5167C74.0579 36.0738 74.8441 35.3028 75.3846 34.2092C75.9305 33.1155 76.3727 31.4805 76.7167 29.2987H78.1798L77.8359 38.9501H54.6497V37.4846L58.6078 36.4074V11.3739L54.6497 10.2967V8.78742H68.6313V10.2529L63.9853 11.3739V34.1271H63.9908ZM98.1012 34.3404C98.1012 35.2317 98.1667 35.8332 98.2923 36.1504C98.4233 36.4675 98.658 36.6261 99.002 36.6261C99.2913 36.6261 99.5698 36.5331 99.8427 36.3472C100.116 36.1613 100.454 35.8387 100.853 35.3794L101.797 36.4128C100.935 37.4463 100.088 38.2064 99.2586 38.6986C98.4287 39.1907 97.5389 39.4313 96.5944 39.4313C95.7318 39.4313 95.0548 39.2016 94.5526 38.7423C94.0503 38.283 93.6681 37.5666 93.4116 36.5878C91.9484 38.4853 89.8138 39.4313 87.0022 39.4313C84.9659 39.4313 83.3662 38.9228 82.2034 37.9002C81.0405 36.8831 80.4618 35.4942 80.4618 33.7444C80.4618 32.4812 80.6747 31.4751 81.106 30.7259C81.5373 29.9768 82.2088 29.3479 83.126 28.8284C84.0432 28.309 85.3917 27.7676 87.1714 27.188L93.1113 25.2468V23.5243C93.1113 21.8291 92.8438 20.5878 92.3142 19.7949C91.7846 19.0075 90.9439 18.6083 89.7974 18.6083C88.4762 18.6083 87.4335 19.0677 86.6583 19.9863C85.883 20.905 85.4954 22.1244 85.4954 23.65V23.8633C85.0641 24.1203 84.5072 24.2515 83.8194 24.2515C83.0168 24.2515 82.3945 24.0492 81.9468 23.65C81.5046 23.2454 81.2807 22.704 81.2807 22.0096C81.2807 21.0636 81.6957 20.216 82.531 19.4669C83.3608 18.7177 84.5236 18.1326 86.0141 17.7006C87.5045 17.2686 89.1969 17.0554 91.0913 17.0554C93.6408 17.0554 95.4479 17.5038 96.5125 18.3896C97.5716 19.2809 98.1066 20.7738 98.1066 22.8736V34.3404H98.1012ZM93.1113 27.0567L89.5408 28.3472C88.1378 28.8667 87.1223 29.4956 86.5109 30.2447C85.894 30.9938 85.5828 31.9398 85.5828 33.0882C85.5828 34.2966 85.8776 35.2372 86.4672 35.9098C87.0568 36.5878 87.9085 36.9214 89.0276 36.9214C90.8074 36.9214 92.1668 36.1012 93.1167 34.4662V27.0567H93.1113ZM103.178 28.9542H104.642C105.329 31.7703 106.356 33.9303 107.715 35.4395C109.075 36.9487 110.789 37.7033 112.858 37.7033C114.578 37.7033 115.943 37.1839 116.947 36.1504C117.952 35.1169 118.454 33.7826 118.454 32.1422C118.454 30.4744 117.957 29.2221 116.969 28.3691C115.981 27.5215 114.638 26.7669 112.945 26.1053L111.182 25.4163C109.631 24.8148 108.338 24.175 107.289 23.4969C106.241 22.8243 105.368 21.9002 104.663 20.7409C103.959 19.5817 103.61 18.1217 103.61 16.3664C103.61 14.7314 104.03 13.2878 104.876 12.0355C105.723 10.7833 106.924 9.81545 108.49 9.12645C110.052 8.43746 111.853 8.09296 113.89 8.09296C115.38 8.09296 116.816 8.257 118.192 8.59057C119.568 8.91866 120.659 9.34518 121.462 9.8592V16.8804H120.086C119.6 14.4689 118.825 12.6863 117.766 11.5379C116.707 10.3896 115.315 9.81545 113.595 9.81545C111.93 9.81545 110.647 10.3021 109.746 11.2809C108.845 12.2597 108.392 13.4792 108.392 14.9446C108.392 16.2351 108.802 17.2577 109.621 18.0014C110.439 18.7505 111.635 19.4504 113.213 20.1121L115.577 21.1018C117.182 21.7908 118.53 22.4908 119.622 23.1907C120.714 23.8961 121.62 24.8585 122.352 26.0779C123.083 27.2973 123.449 28.8284 123.449 30.6658C123.449 33.3397 122.494 35.4614 120.588 37.0417C118.683 38.622 116.008 39.4094 112.563 39.4094C110.898 39.4094 109.244 39.1798 107.595 38.7204C105.946 38.2611 104.62 37.6432 103.615 36.8667L103.178 28.9542ZM143.835 34.3404C143.835 35.2317 143.9 35.8332 144.026 36.1504C144.157 36.4675 144.392 36.6261 144.735 36.6261C145.019 36.6261 145.303 36.5331 145.576 36.3472C145.849 36.1613 146.188 35.8387 146.586 35.3794L147.531 36.4128C146.668 37.4463 145.822 38.2064 144.992 38.6986C144.185 39.18 143.262 39.4332 142.322 39.4313C141.46 39.4313 140.783 39.2016 140.281 38.7423C139.778 38.283 139.396 37.5666 139.14 36.5878C137.676 38.4853 135.542 39.4313 132.73 39.4313C130.694 39.4313 129.094 38.9228 127.931 37.9002C126.769 36.8831 126.19 35.4942 126.19 33.7444C126.19 32.4812 126.403 31.4751 126.834 30.7259C127.265 29.9768 127.937 29.3479 128.854 28.8284C129.771 28.309 131.12 27.7676 132.899 27.188L138.834 25.2468V23.5243C138.834 21.8291 138.566 20.5878 138.037 19.7949C137.507 19.0075 136.666 18.6083 135.52 18.6083C134.199 18.6083 133.156 19.0677 132.381 19.9863C131.606 20.905 131.218 22.1244 131.218 23.65V23.8633C130.787 24.1203 130.23 24.2515 129.542 24.2515C128.739 24.2515 128.117 24.0492 127.669 23.65C127.222 23.2454 127.003 22.704 127.003 22.0096C127.003 21.0636 127.418 20.216 128.254 19.4669C129.083 18.7177 130.246 18.1326 131.737 17.7006C133.227 17.2686 134.919 17.0554 136.814 17.0554C139.363 17.0554 141.17 17.5038 142.235 18.3896C143.294 19.2809 143.829 20.7738 143.829 22.8736V34.3404H143.835ZM138.845 27.0567L135.274 28.3472C133.866 28.8667 132.856 29.4956 132.239 30.2447C131.622 30.9938 131.316 31.9398 131.316 33.0882C131.316 34.2966 131.611 35.2372 132.201 35.9098C132.79 36.5878 133.642 36.9214 134.761 36.9214C136.541 36.9214 137.9 36.1012 138.85 34.4662V27.0567H138.845ZM155.965 36.7081L158.848 37.5721V38.9501H147.962V37.5721L150.888 36.7081V11.1114L147.574 10.3349V8.95694L155.278 7.74846L155.965 8.34997V36.7081ZM168.353 36.7081L171.235 37.5721V38.9501H160.349V37.5721L163.276 36.7081V11.1114L159.962 10.3349V8.95694L167.665 7.74846L168.353 8.34997V36.7081ZM192.576 32.5742C191.686 34.9583 190.518 36.6972 189.071 37.7854C187.625 38.879 185.763 39.4258 183.497 39.4258C176.498 39.4258 172.999 35.7184 172.999 28.3089C172.999 24.8312 173.943 22.0916 175.838 20.0793C177.732 18.067 180.325 17.0608 183.623 17.0608C186.489 17.0608 188.695 17.8428 190.229 19.4067C191.763 20.9706 192.533 23.2344 192.533 26.1928C192.533 26.6521 192.418 27.0075 192.189 27.2481C191.959 27.4942 191.632 27.6145 191.2 27.6145H178.507C178.333 33.9357 180.271 37.0964 184.316 37.0964C185.867 37.0964 187.171 36.6863 188.231 35.866C189.29 35.0458 190.223 33.7498 191.026 31.9672L192.576 32.5742ZM179.883 20.5714C179.053 21.8783 178.606 23.6227 178.551 25.8045H187.455V25.6295C187.455 23.2727 187.095 21.512 186.38 20.3527C185.665 19.188 184.573 18.6083 183.11 18.6083C181.788 18.6138 180.713 19.2645 179.883 20.5714ZM196.409 13.2276H195.639V12.6808H197.861V13.2276H197.091V15.404H196.409V13.2276ZM198.183 12.6808H199.029L199.581 14.0861H199.586L200.127 12.6808H200.962V15.404H200.334V13.6705H200.329L199.81 15.0376H199.34L198.816 13.6705H198.811V15.404H198.183V12.6808Z" fill="#B5B5B5"/>
</svg>
