<svg width="81" height="39" viewBox="0 0 81 39" fill="none" xmlns="http://www.w3.org/2000/svg">
<path fill-rule="evenodd" clip-rule="evenodd" d="M22.4581 0.14302C22.37 0.257398 22.2893 0.660181 22.2788 1.03806C22.2621 1.63158 21.8672 2.72702 21.6697 2.72702C21.6331 2.72702 21.0206 2.80666 20.3083 2.90383C19.0671 3.07344 18.0391 3.34791 10.8205 5.43639C9.04537 5.94994 6.81088 6.58705 5.85502 6.85202C4.89916 7.11699 3.53595 7.51404 2.82572 7.73428C2.11548 7.95451 1.18924 8.1346 0.767174 8.1346H0L0.486125 8.63964C1.10036 9.27773 1.71542 9.53304 3.18075 9.75819C5.6367 10.1354 6.92939 10.0135 10.8295 9.03734C13.8983 8.26914 14.6145 8.14329 15.7258 8.17704C17.2648 8.22375 19.1608 8.03579 19.6233 7.79081C19.8043 7.69495 19.9915 7.65513 20.0394 7.70249C20.087 7.74985 19.8219 9.10158 19.4496 10.7063C16.9008 21.6989 16.4559 23.774 16.1171 26.2461C15.2678 32.4431 15.6351 37.162 17.0693 38.4793C17.6933 39.0524 18.2193 39.1543 18.6017 38.7758C18.8647 38.5154 18.8847 38.3797 18.7377 37.853C18.4499 36.8205 18.721 34.294 19.2629 32.9603C20.2337 30.5708 21.1639 26.932 21.4016 24.5936C21.602 22.6205 21.8687 21.2804 22.1492 20.8342C22.2626 20.654 22.4 20.0709 22.4546 19.5387C22.5091 19.0063 22.6215 18.527 22.7044 18.4736C22.7871 18.42 22.8985 17.7863 22.9517 17.0653C23.005 16.3443 23.1695 15.3488 23.3173 14.8531C23.4651 14.3574 23.6543 13.5463 23.7377 13.0506C23.9519 11.7785 24.7532 9.1278 24.6295 10.101C24.5779 10.5066 24.4994 11.2808 24.4551 11.8216C24.4107 12.3623 24.3059 13.0997 24.2222 13.4603C24.0666 14.1306 24.0055 15.2913 24.1325 15.1656C24.1712 15.1273 24.2419 14.8017 24.2894 14.442C24.4089 13.5379 24.686 12.5632 24.7081 12.9687C24.7778 14.2401 26.2137 9.15139 26.2137 7.63301C26.2137 6.67865 26.216 6.67423 26.7516 6.58869C28.5371 6.3034 30.511 6.17837 31.7463 6.27243C32.555 6.33404 33.1656 6.31716 33.1659 6.23343C33.1666 6.00385 37.7537 5.91455 42.9396 6.04302C44.6585 6.08562 44.706 6.07661 45.9189 5.48178C47.3271 4.79141 48.393 3.90145 48.393 3.41657C48.393 2.93005 46.8685 1.64715 45.9467 1.35792C45.418 1.19209 43.9352 1.06919 41.3585 0.977753C36.7942 0.81569 34.7218 0.85682 31.4275 1.17521C27.9193 1.51409 27.1495 1.48836 25.9654 0.992337C23.7162 0.0501075 22.716 -0.192086 22.4581 0.14302ZM49.6146 7.5732C49.767 8.85824 50.2604 9.74082 50.9961 10.0451C51.9202 10.4274 52.3655 10.1556 52.3655 9.20891C52.3655 8.61358 52.2635 8.35877 51.829 7.86881C51.3207 7.29577 50.2362 6.67128 49.7357 6.66341C49.5541 6.66063 49.5288 6.85104 49.6146 7.5732ZM53.5459 8.60457C53.3519 8.79662 53.193 9.14943 53.193 9.38834C53.193 9.7926 52.2367 13.8771 51.2997 17.475C50.5054 20.5245 49.6303 26.3906 49.4663 29.7649C49.1672 35.9174 50.4229 38.9414 53.2771 38.9414C54.7626 38.9414 55.8028 38.087 57.2954 35.6403C58.6469 33.4254 60.6786 28.9272 61.5408 26.2418C62.9247 21.9307 63.2746 20.9635 64.1331 19.0763C65.6315 15.7819 65.9099 15.2951 67.6009 13.0098C68.5177 11.7705 69.2269 10.6911 69.1769 10.6108C69.1268 10.5307 68.8992 10.4186 68.6709 10.3619C67.6414 10.1061 65.2052 12.0459 63.74 14.2881C63.33 14.9157 62.0429 17.1982 60.8798 19.3606C58.9592 22.9317 58.3064 24.2608 56.3332 28.6179C54.4369 32.8053 54.0431 33.6084 53.8553 33.6703C53.4344 33.8093 53.7697 29.6142 54.5865 24.5212C54.7239 23.665 54.9224 22.3746 55.0275 21.6536C55.1327 20.9325 55.3549 19.7527 55.5212 19.0317C55.6874 18.3107 56.055 16.0985 56.3379 14.1157C56.6209 12.1329 56.9184 10.2655 56.999 9.96581C57.0796 9.66626 57.1037 9.31329 57.0527 9.18138C56.8993 8.78548 56.0605 8.45496 54.9482 8.35205C54.023 8.26668 53.8571 8.2965 53.5459 8.60457ZM36.2275 11.0024C34.7623 11.3998 33.9973 11.7175 32.6156 12.5025C31.8711 12.9252 30.9634 13.4275 30.5986 13.6184C30.2336 13.8093 29.5285 14.3496 29.0313 14.819C28.5342 15.2883 28.088 15.6736 28.0395 15.6749C27.9912 15.6764 27.8454 15.7441 27.7156 15.8253C27.5236 15.9456 27.5752 16.081 27.9922 16.5511L28.5046 17.1289L27.3538 19.6223C25.04 24.6351 24.062 28.0002 24.062 30.949C24.062 33.5771 24.8159 35.0997 26.0578 34.9795C26.5171 34.9351 26.7329 34.7504 27.4211 33.8126C28.1886 32.7665 28.3638 32.24 27.7861 32.7145C27.387 33.0424 27.2988 32.7856 27.5057 31.8981C27.8089 30.598 28.162 29.8793 28.4449 29.9868C28.5806 30.0384 29.1228 29.9442 29.6498 29.7775C31.2944 29.2573 32.7806 29.6612 36.0424 31.5147C38.9827 33.1853 40.1049 33.5928 41.8003 33.6053C43.0111 33.6141 43.3085 33.5619 43.7038 33.2707C44.3589 32.7882 44.383 32.4531 43.7715 32.3321C43.4969 32.2776 42.6926 31.9052 41.9844 31.5045C41.2759 31.1039 39.393 30.0684 37.7999 29.2037C36.2068 28.339 34.7961 27.5716 34.665 27.4985C34.1982 27.2381 34.3343 27.0307 35.6401 26.0126C37.0672 24.8996 38.5151 23.4454 39.9902 21.6434C40.5022 21.0181 41.2614 20.146 41.6777 19.7053C42.0939 19.2645 42.6953 18.3882 43.0139 17.7578C43.5152 16.7654 43.593 16.4529 43.593 15.4291C43.593 14.13 43.3515 13.2145 43.0088 13.2145C42.8871 13.2145 42.738 13.0855 42.6772 12.9277C42.4968 12.46 41.007 11.2313 40.3307 10.9924C39.5251 10.708 37.2936 10.7134 36.2275 11.0024ZM40.0265 14.7515C39.5878 16.8377 36.3243 20.2962 31.6509 23.6276C30.9291 24.142 30.293 24.5179 30.2374 24.4627C30.1363 24.3626 32.34 18.1149 32.7715 17.2787C33.1312 16.5814 33.9736 16.0492 36.0007 15.2389C38.0341 14.4261 39.3634 14.0552 39.8359 14.1686C40.0748 14.226 40.1127 14.3417 40.0265 14.7515ZM70.0556 15.3516C68.8846 16.5359 67.4547 18.5578 66.6217 20.2081C65.8528 21.7311 64.6138 25.6001 64.6138 26.4779C64.6138 27.5237 65.1436 29.3127 65.6807 30.0799C66.3224 30.9967 68.9909 32.3783 70.1315 32.3843C70.9705 32.3887 72.7781 31.8249 73.1722 31.4357C73.3824 31.2281 73.6297 31.1042 73.7215 31.1604C73.8134 31.2166 74.1825 31.0323 74.5415 30.7507C75.2468 30.1977 77.1931 27.8893 77.1931 27.606C77.1931 27.5106 77.4432 27.0911 77.7491 26.6734C78.0548 26.2557 78.3524 25.7184 78.4101 25.4792C78.4681 25.2401 78.8326 24.6613 79.2199 24.1931C80.7853 22.3012 81 22.0083 81 21.7645C81 21.5751 80.884 21.6175 80.5448 21.9307C80.2946 22.162 79.531 22.739 78.8483 23.2131C78.1655 23.6871 77.2345 24.4201 76.7793 24.8421C75.3833 26.1359 72.6255 28.0776 71.1688 28.7922C70.1144 29.3095 69.5733 29.4768 68.8959 29.495L68.0069 29.5191L68.0127 28.1751C68.0158 27.4359 68.0746 26.7757 68.1431 26.7077C68.2116 26.6398 68.5071 26.688 68.7994 26.8147C70.0505 27.3569 71.5652 26.9345 72.9092 25.6686C73.2922 25.3079 73.6629 25.0128 73.7331 25.0128C73.9979 25.0128 75.0283 23.5708 75.6649 22.309C76.4135 20.8249 77.1931 18.5193 77.1931 17.7889C77.1931 17.1284 76.7747 16.1819 76.2326 15.6164C75.4639 14.8146 74.5844 14.4561 73.4276 14.4728C72.8587 14.4811 72.3931 14.4374 72.3931 14.3756C72.3931 14.3137 72.1139 14.2588 71.7724 14.2532C71.2191 14.2443 71.0329 14.3635 70.0556 15.3516ZM45.7835 16.6139C45.3204 16.6945 45.0531 17.2064 43.9385 20.1465C43.1976 22.1004 43.0366 22.7462 42.7545 24.8917C42.3079 28.2883 42.3036 29.0424 42.7267 29.8578C43.1956 30.7622 43.4495 30.9357 44.1925 30.8602C44.7439 30.8043 44.863 30.7134 45.1153 30.1575C45.2747 29.8064 45.4046 29.2979 45.4041 29.0275C45.4033 28.56 45.3912 28.5515 45.1601 28.854C44.8134 29.3079 44.8599 29.0121 45.2454 28.3124C45.5112 27.8298 46.1862 26.3164 46.8633 24.6851C46.9539 24.467 46.9312 24.4668 46.6622 24.6838C46.3802 24.9114 46.3678 24.8999 46.4831 24.5199C46.5513 24.2952 46.7417 23.8903 46.906 23.6199C47.0705 23.3496 47.5219 22.4832 47.9092 21.6945C48.2965 20.906 48.6756 20.2607 48.7515 20.2607C48.8275 20.2607 48.8896 20.1476 48.8896 20.0095C48.8896 19.8712 49.0798 19.3868 49.3122 18.9327C49.69 18.1945 49.7119 18.0567 49.5199 17.6272C49.4019 17.3632 49.2119 17.1472 49.0975 17.1472C48.9831 17.1472 48.8896 17.0794 48.8896 16.9963C48.8896 16.7281 46.6869 16.4567 45.7835 16.6139ZM73.6416 18.2533C73.3681 19.7463 71.7681 22.0991 69.8885 23.7722C68.536 24.9759 68.426 24.7603 69.3886 22.7919C70.3321 20.8624 71.0718 19.8051 72.2769 18.663C73.5486 17.4578 73.8011 17.3821 73.6416 18.2533ZM47.3898 23.3155C47.2088 23.7337 47.0891 24.1042 47.1238 24.1386C47.1586 24.173 47.3425 23.8308 47.5325 23.3781C47.7227 22.9253 47.8424 22.5548 47.7987 22.5548C47.755 22.5548 47.5711 22.8971 47.3898 23.3155Z" fill="#FF7424"/>
</svg>
