<svg width="51" height="51" viewBox="0 0 51 51" fill="none" xmlns="http://www.w3.org/2000/svg">
<g filter="url(#filter0_d_13_893)">
<path d="M30.5705 15.5688C31.2001 15.5688 31.7105 15.0584 31.7105 14.4288C31.7105 13.7992 31.2001 13.2888 30.5705 13.2888C29.9409 13.2888 29.4305 13.7992 29.4305 14.4288C29.4305 15.0584 29.9409 15.5688 30.5705 15.5688Z" fill="#FF7424"/>
<path fill-rule="evenodd" clip-rule="evenodd" d="M25.5015 14.6217C24.5366 14.6217 23.5935 14.9078 22.7913 15.4438C21.989 15.9798 21.3638 16.7417 20.9945 17.6331C20.6253 18.5245 20.5287 19.5053 20.7169 20.4516C20.9052 21.3979 21.3698 22.2671 22.052 22.9494C22.7343 23.6316 23.6035 24.0962 24.5498 24.2844C25.4961 24.4727 26.4769 24.3761 27.3683 24.0068C28.2597 23.6376 29.0215 23.0123 29.5576 22.2101C30.0936 21.4079 30.3797 20.4647 30.3797 19.4999C30.3797 18.2061 29.8658 16.9653 28.9509 16.0505C28.0361 15.1356 26.7953 14.6217 25.5015 14.6217ZM25.5015 22.6666C24.8752 22.6666 24.2629 22.4809 23.7422 22.1329C23.2214 21.7849 22.8155 21.2904 22.5758 20.7117C22.3362 20.1331 22.2735 19.4964 22.3956 18.8821C22.5178 18.2679 22.8194 17.7036 23.2623 17.2607C23.7052 16.8179 24.2694 16.5163 24.8837 16.3941C25.4979 16.2719 26.1347 16.3346 26.7133 16.5743C27.2919 16.814 27.7865 17.2199 28.1344 17.7406C28.4824 18.2614 28.6681 18.8736 28.6681 19.4999C28.6681 20.3398 28.3345 21.1452 27.7406 21.7391C27.1468 22.3329 26.3413 22.6666 25.5015 22.6666Z" fill="#FF7424"/>
<path fill-rule="evenodd" clip-rule="evenodd" d="M21.5828 10.057C22.5962 10.0111 22.92 10 25.5 10C28.0808 10 28.403 10.0103 29.4164 10.0578C30.2045 10.0734 30.9842 10.2225 31.7225 10.4988C32.3537 10.7428 32.9269 11.1161 33.4054 11.5946C33.8839 12.0731 34.2572 12.6463 34.5013 13.2775C34.7777 14.0155 34.9271 14.7949 34.943 15.5828C34.9889 16.5962 35 16.9192 35 19.5C35 22.0808 34.9889 22.403 34.943 23.4164C34.9274 24.2045 34.7783 24.9842 34.502 25.7225C34.258 26.3537 33.8847 26.9269 33.4062 27.4054C32.9277 27.8839 32.3545 28.2572 31.7233 28.5013C30.9851 28.7778 30.2053 28.9272 29.4172 28.943C28.4038 28.9889 28.08 29 25.5 29C22.92 29 22.597 28.9889 21.5836 28.943C20.7955 28.9272 20.0157 28.7778 19.2775 28.5013C18.6463 28.2572 18.0731 27.8839 17.5946 27.4054C17.1161 26.9269 16.7428 26.3537 16.4988 25.7225C16.2223 24.9845 16.0729 24.2051 16.057 23.4172C16.0111 22.4038 16 22.0808 16 19.5C16 16.9192 16.0111 16.597 16.057 15.5836C16.0728 14.7955 16.2222 14.0157 16.4988 13.2775C16.7428 12.6463 17.1161 12.0731 17.5946 11.5946C18.0731 11.1161 18.6463 10.7428 19.2775 10.4988C20.0155 10.2223 20.7949 10.0729 21.5828 10.057ZM29.3388 11.767C28.3373 11.7211 28.0365 11.7116 25.5 11.7116C22.9635 11.7116 22.6627 11.7211 21.6612 11.767C21.0589 11.7742 20.4623 11.8847 19.8974 12.094C19.4876 12.252 19.1154 12.4942 18.8048 12.8048C18.4942 13.1154 18.252 13.4876 18.094 13.8974C17.8847 14.4623 17.7742 15.0589 17.767 15.6612C17.7211 16.6627 17.7116 16.9635 17.7116 19.5C17.7116 22.0365 17.7211 22.3373 17.767 23.3388C17.7742 23.9411 17.8847 24.5377 18.094 25.1026C18.252 25.5124 18.4942 25.8846 18.8048 26.1952C19.1154 26.5058 19.4876 26.748 19.8974 26.906C20.4623 27.1153 21.0589 27.2258 21.6612 27.233C22.6627 27.2789 22.9635 27.2884 25.5 27.2884C28.0365 27.2884 28.3373 27.2789 29.3388 27.233C29.9411 27.2258 30.5377 27.1153 31.1026 26.906C31.5124 26.748 31.8846 26.5058 32.1952 26.1952C32.5058 25.8846 32.748 25.5124 32.906 25.1026C33.1153 24.5377 33.2258 23.9411 33.233 23.3388C33.2789 22.3373 33.2884 22.0381 33.2884 19.5008C33.2884 16.9635 33.2789 16.6627 33.233 15.6612C33.2258 15.0589 33.1153 14.4623 32.906 13.8974C32.748 13.4876 32.5058 13.1154 32.1952 12.8048C31.8846 12.4942 31.5124 12.252 31.1026 12.094C30.5377 11.8847 29.9411 11.7742 29.3388 11.767Z" fill="#FF7424"/>
</g>
<defs>
<filter id="filter0_d_13_893" x="0" y="0" width="51" height="51" filterUnits="userSpaceOnUse" color-interpolation-filters="sRGB">
<feFlood flood-opacity="0" result="BackgroundImageFix"/>
<feColorMatrix in="SourceAlpha" type="matrix" values="0 0 0 0 0 0 0 0 0 0 0 0 0 0 0 0 0 0 127 0" result="hardAlpha"/>
<feOffset dy="6"/>
<feGaussianBlur stdDeviation="8"/>
<feColorMatrix type="matrix" values="0 0 0 0 1 0 0 0 0 0.454902 0 0 0 0 0.141176 0 0 0 0.23 0"/>
<feBlend mode="normal" in2="BackgroundImageFix" result="effect1_dropShadow_13_893"/>
<feBlend mode="normal" in="SourceGraphic" in2="effect1_dropShadow_13_893" result="shape"/>
</filter>
</defs>
</svg>
