<svg width="24" height="24" viewBox="0 0 24 24" fill="none" xmlns="http://www.w3.org/2000/svg">
<path d="M11.5516 0.9086C11.735 0.536977 12.265 0.536977 12.4484 0.9086L15.7043 7.50577C15.7771 7.65335 15.9179 7.75563 16.0807 7.7793L23.3612 8.8372C23.7713 8.89679 23.935 9.40078 23.6383 9.69005L18.3701 14.8252C18.2523 14.9401 18.1985 15.1056 18.2263 15.2678L19.47 22.5188C19.54 22.9272 19.1113 23.2387 18.7445 23.0459L12.2327 19.6224C12.087 19.5459 11.913 19.5459 11.7673 19.6224L5.25553 23.0459C4.88872 23.2387 4.46 22.9272 4.53006 22.5188L5.7737 15.2678C5.80152 15.1056 5.74775 14.9401 5.6299 14.8252L0.361746 9.69005C0.0649872 9.40078 0.228742 8.89679 0.638852 8.8372L7.91927 7.7793C8.08212 7.75563 8.22291 7.65335 8.29574 7.50578L11.5516 0.9086Z" fill="#FF7424"/>
</svg>
