<svg width="55" height="51" viewBox="0 0 55 51" fill="none" xmlns="http://www.w3.org/2000/svg">
<g filter="url(#filter0_d_12_886)">
<path d="M23.2345 28.9997C25.0005 29.011 26.751 28.6658 28.3847 27.984C30.0183 27.3021 31.5025 26.2974 32.7512 25.0279C34 23.7585 34.9883 22.2496 35.659 20.5888C36.3297 18.9281 36.6693 17.1485 36.6582 15.3532V14.7262C37.5736 14.0443 38.3659 13.2065 39 12.2498C38.138 12.633 37.226 12.8872 36.2923 13.0044C37.2822 12.4047 38.025 11.4608 38.3832 10.3474C37.4606 10.9101 36.4489 11.3056 35.3932 11.5165C34.6822 10.7463 33.7414 10.2358 32.7163 10.064C31.6912 9.89218 30.6389 10.0686 29.7224 10.5659C28.8058 11.0633 28.076 11.8538 27.646 12.8153C27.2159 13.7767 27.1095 14.8555 27.3432 15.8846C25.4677 15.791 23.6326 15.2969 21.9574 14.4344C20.2822 13.5719 18.8045 12.3604 17.6205 10.8788C17.0234 11.9322 16.8425 13.1769 17.1142 14.3609C17.386 15.5449 18.0901 16.5796 19.0841 17.2556C18.3508 17.2269 17.6345 17.023 16.9932 16.6605V16.7136C16.9867 17.8145 17.3515 18.8844 18.0268 19.745C18.7022 20.6057 19.6472 21.205 20.7045 21.4431C20.0225 21.6296 19.3081 21.6587 18.6136 21.5282C18.9197 22.467 19.504 23.2867 20.2864 23.8746C21.0688 24.4626 22.0109 24.7901 22.9836 24.8122C21.3205 26.1732 19.2535 26.9223 17.1186 26.9379C16.7443 26.9269 16.3709 26.8949 16 26.8422C18.1609 28.2418 20.6723 28.9797 23.2345 28.9678" fill="#FF7424"/>
</g>
<defs>
<filter id="filter0_d_12_886" x="0" y="0" width="55" height="51" filterUnits="userSpaceOnUse" color-interpolation-filters="sRGB">
<feFlood flood-opacity="0" result="BackgroundImageFix"/>
<feColorMatrix in="SourceAlpha" type="matrix" values="0 0 0 0 0 0 0 0 0 0 0 0 0 0 0 0 0 0 127 0" result="hardAlpha"/>
<feOffset dy="6"/>
<feGaussianBlur stdDeviation="8"/>
<feColorMatrix type="matrix" values="0 0 0 0 1 0 0 0 0 0.454902 0 0 0 0 0.141176 0 0 0 0.23 0"/>
<feBlend mode="normal" in2="BackgroundImageFix" result="effect1_dropShadow_12_886"/>
<feBlend mode="normal" in="SourceGraphic" in2="effect1_dropShadow_12_886" result="shape"/>
</filter>
</defs>
</svg>
