<svg width="53" height="53" viewBox="0 0 53 53" fill="none" xmlns="http://www.w3.org/2000/svg">
<path d="M3.49463 33.2002H33.201V34.9476H3.49463V33.2002Z" fill="#3068D6"/>
<path d="M36.6958 33.2002H38.4432V34.9476H36.6958V33.2002Z" fill="#3068D6"/>
<path d="M48.894 17.1248C50.6694 14.2092 52.4229 10.6314 52.4229 7.86344C52.4229 5.77793 51.5945 3.77783 50.1198 2.30315C48.6451 0.828467 46.645 0 44.5595 0C42.474 0 40.4739 0.828467 38.9992 2.30315C37.5245 3.77783 36.696 5.77793 36.696 7.86344C36.852 10.0074 37.466 12.093 38.4968 13.9794H27.9589V2.62115C27.9589 1.92598 27.6827 1.25928 27.1912 0.767716C26.6996 0.276156 26.0329 0 25.3377 0H2.62115C1.92598 0 1.25928 0.276156 0.767716 0.767716C0.276156 1.25928 0 1.92598 0 2.62115V44.5595C0 45.2547 0.276156 45.9214 0.767716 46.4129C1.25928 46.9045 1.92598 47.1806 2.62115 47.1806H8.80705C9.01596 48.6353 9.74228 49.9658 10.8528 50.9282C11.9633 51.8907 13.3836 52.4205 14.8532 52.4205C16.3227 52.4205 17.743 51.8907 18.8535 50.9282C19.964 49.9658 20.6904 48.6353 20.8993 47.1806H35.0185C35.2274 48.6353 35.9537 49.9658 37.0643 50.9282C38.1748 51.8907 39.5951 52.4205 41.0646 52.4205C42.5342 52.4205 43.9544 51.8907 45.065 50.9282C46.1755 49.9658 46.9018 48.6353 47.1107 47.1806H49.8018C50.497 47.1806 51.1637 46.9045 51.6552 46.4129C52.1468 45.9214 52.4229 45.2547 52.4229 44.5595V25.3377C52.4229 23.8009 52.11 22.2802 51.5033 20.8683C50.8966 19.4563 50.0088 18.1826 48.894 17.1248ZM44.5595 1.74743C46.181 1.74928 47.7355 2.39424 48.8821 3.54081C50.0287 4.68739 50.6736 6.24194 50.6755 7.86344C50.6755 11.8013 46.2833 18.0859 44.5595 20.4039C42.8348 18.0859 38.4435 11.8048 38.4435 7.86344C38.4453 6.24194 39.0903 4.68739 40.2369 3.54081C41.3834 2.39424 42.938 1.74928 44.5595 1.74743ZM41.5993 19.2584C42.7955 21.0251 43.7705 22.2562 43.8771 22.389C43.959 22.4913 44.0628 22.574 44.1809 22.6307C44.299 22.6875 44.4284 22.717 44.5595 22.717C44.6906 22.717 44.8199 22.6875 44.9381 22.6307C45.0562 22.574 45.16 22.4913 45.2419 22.389C45.2899 22.3287 45.5276 22.0272 45.8701 21.572C46.7153 22.6456 47.1767 23.9714 47.1806 25.3377V29.7063H36.696V19.2217H41.0646C41.2394 19.2217 41.4211 19.2445 41.5993 19.2584ZM31.4538 15.7269V29.7063H1.74743V27.7981C2.02724 27.9016 2.32283 27.956 2.62115 27.9589H25.3377C26.0329 27.9589 26.6996 27.6827 27.1912 27.1912C27.6827 26.6996 27.9589 26.0329 27.9589 25.3377V15.7269H31.4538ZM10.4846 8.73715H1.74743V6.98972H10.4846V8.73715ZM12.232 1.74743H15.7269V11.4728L14.4644 10.6314C14.3208 10.5356 14.152 10.4845 13.9794 10.4845C13.8068 10.4845 13.6381 10.5356 13.4945 10.6314L12.232 11.4728V1.74743ZM17.4743 6.98972H26.2115V8.73715H17.4743V6.98972ZM26.2115 2.62115V5.24229H17.4743V1.74743H25.3377C25.5695 1.74743 25.7917 1.83948 25.9556 2.00334C26.1194 2.16719 26.2115 2.38942 26.2115 2.62115ZM2.62115 1.74743H10.4846V5.24229H1.74743V2.62115C1.74743 2.38942 1.83948 2.16719 2.00334 2.00334C2.16719 1.83948 2.38942 1.74743 2.62115 1.74743ZM1.74743 10.4846H10.4846V13.1057C10.4846 13.2639 10.5275 13.4191 10.6088 13.5548C10.69 13.6905 10.8066 13.8016 10.9461 13.8762C11.0856 13.9509 11.2427 13.9862 11.4007 13.9785C11.5587 13.9709 11.7116 13.9205 11.8432 13.8327L13.9794 12.4068L16.1157 13.8309C16.2471 13.9186 16.3999 13.969 16.5578 13.9768C16.7156 13.9845 16.8726 13.9493 17.012 13.8749C17.1514 13.8005 17.2681 13.6897 17.3495 13.5542C17.4309 13.4188 17.474 13.2638 17.4743 13.1057V10.4846H26.2115V25.3377C26.2115 25.5695 26.1194 25.7917 25.9556 25.9556C25.7917 26.1194 25.5695 26.2115 25.3377 26.2115H2.62115C2.38942 26.2115 2.16719 26.1194 2.00334 25.9556C1.83948 25.7917 1.74743 25.5695 1.74743 25.3377V10.4846ZM14.8532 50.6755C13.9891 50.6755 13.1445 50.4193 12.4261 49.9393C11.7077 49.4592 11.1478 48.777 10.8171 47.9787C10.4865 47.1805 10.4 46.3021 10.5685 45.4547C10.7371 44.6072 11.1532 43.8288 11.7641 43.2179C12.3751 42.6069 13.1535 42.1908 14.0009 42.0223C14.8483 41.8537 15.7267 41.9402 16.5249 42.2709C17.3232 42.6015 18.0055 43.1615 18.4855 43.8799C18.9655 44.5983 19.2217 45.4429 19.2217 46.3069C19.2204 47.4651 18.7596 48.5755 17.9407 49.3944C17.1217 50.2134 16.0114 50.6741 14.8532 50.6755ZM41.0646 50.6755C40.2006 50.6755 39.356 50.4193 38.6376 49.9393C37.9192 49.4592 37.3592 48.777 37.0286 47.9787C36.6979 47.1805 36.6114 46.3021 36.78 45.4547C36.9486 44.6072 37.3646 43.8288 37.9756 43.2179C38.5865 42.6069 39.3649 42.1908 40.2124 42.0223C41.0598 41.8537 41.9382 41.9402 42.7364 42.2709C43.5347 42.6015 44.2169 43.1615 44.697 43.8799C45.177 44.5983 45.4332 45.4429 45.4332 46.3069C45.4318 47.4651 44.9711 48.5755 44.1521 49.3944C43.3332 50.2134 42.2228 50.6741 41.0646 50.6755ZM50.6755 44.5595C50.6755 44.7912 50.5834 45.0135 50.4196 45.1773C50.2557 45.3412 50.0335 45.4332 49.8018 45.4332H47.1107C46.9018 43.9786 46.1755 42.648 45.065 41.6856C43.9544 40.7232 42.5342 40.1934 41.0646 40.1934C39.5951 40.1934 38.1748 40.7232 37.0643 41.6856C35.9537 42.648 35.2274 43.9786 35.0185 45.4332H20.8993C20.6904 43.9786 19.964 42.648 18.8535 41.6856C17.743 40.7232 16.3227 40.1934 14.8532 40.1934C13.3836 40.1934 11.9633 40.7232 10.8528 41.6856C9.74228 42.648 9.01596 43.9786 8.80705 45.4332H2.62115C2.38942 45.4332 2.16719 45.3412 2.00334 45.1773C1.83948 45.0135 1.74743 44.7912 1.74743 44.5595V31.4538H32.3275C32.5592 31.4538 32.7814 31.3617 32.9453 31.1979C33.1091 31.034 33.2012 30.8118 33.2012 30.58V15.7269H39.4107C39.7497 16.3315 40.0965 16.9143 40.4443 17.4743H35.8223C35.5906 17.4743 35.3684 17.5664 35.2045 17.7302C35.0407 17.8941 34.9486 18.1163 34.9486 18.348V30.58C34.9486 30.8118 35.0407 31.034 35.2045 31.1979C35.3684 31.3617 35.5906 31.4538 35.8223 31.4538H48.0544C48.2861 31.4538 48.5083 31.3617 48.6722 31.1979C48.836 31.034 48.9281 30.8118 48.9281 30.58V25.3377C48.9251 23.4095 48.2151 21.5493 46.9325 20.1094C47.2479 19.6612 47.5878 19.1606 47.9425 18.6241C49.6966 20.4184 50.6777 22.8285 50.6755 25.3377V44.5595Z" fill="#3068D6"/>
<path d="M22.7163 16.6001H24.4637V18.3475H22.7163V16.6001Z" fill="#3068D6"/>
<path d="M24.4638 23.5891V20.0942H22.7164V22.7154H20.0952V24.4628H23.5901C23.8218 24.4628 24.044 24.3708 24.2079 24.2069C24.3717 24.0431 24.4638 23.8208 24.4638 23.5891Z" fill="#3068D6"/>
<path d="M14.8531 43.6855C14.3347 43.6855 13.8279 43.8393 13.3969 44.1273C12.9658 44.4153 12.6298 44.8247 12.4315 45.3036C12.2331 45.7826 12.1812 46.3096 12.2823 46.8181C12.3834 47.3265 12.6331 47.7935 12.9997 48.1601C13.3662 48.5267 13.8333 48.7763 14.3417 48.8775C14.8502 48.9786 15.3772 48.9267 15.8561 48.7283C16.3351 48.5299 16.7445 48.194 17.0325 47.7629C17.3205 47.3319 17.4742 46.8251 17.4742 46.3067C17.4742 45.6115 17.1981 44.9448 16.7065 44.4533C16.215 43.9617 15.5483 43.6855 14.8531 43.6855ZM14.8531 47.1804C14.6803 47.1804 14.5114 47.1292 14.3677 47.0332C14.224 46.9372 14.112 46.8007 14.0459 46.641C13.9797 46.4814 13.9624 46.3057 13.9962 46.1362C14.0299 45.9668 14.1131 45.8111 14.2353 45.6889C14.3575 45.5667 14.5131 45.4835 14.6826 45.4498C14.8521 45.4161 15.0278 45.4334 15.1874 45.4995C15.3471 45.5656 15.4835 45.6776 15.5795 45.8213C15.6756 45.965 15.7268 46.1339 15.7268 46.3067C15.7268 46.5384 15.6347 46.7607 15.4709 46.9245C15.307 47.0884 15.0848 47.1804 14.8531 47.1804Z" fill="#3068D6"/>
<path d="M41.0645 43.6855C40.5461 43.6855 40.0393 43.8393 39.6083 44.1273C39.1772 44.4153 38.8413 44.8247 38.6429 45.3036C38.4445 45.7826 38.3926 46.3096 38.4937 46.8181C38.5949 47.3265 38.8445 47.7935 39.2111 48.1601C39.5777 48.5267 40.0447 48.7763 40.5531 48.8775C41.0616 48.9786 41.5886 48.9267 42.0676 48.7283C42.5465 48.5299 42.9559 48.194 43.2439 47.7629C43.5319 47.3319 43.6857 46.8251 43.6857 46.3067C43.6857 45.6115 43.4095 44.9448 42.9179 44.4533C42.4264 43.9617 41.7597 43.6855 41.0645 43.6855ZM41.0645 47.1804C40.8917 47.1804 40.7228 47.1292 40.5791 47.0332C40.4354 46.9372 40.3234 46.8007 40.2573 46.641C40.1912 46.4814 40.1739 46.3057 40.2076 46.1362C40.2413 45.9668 40.3245 45.8111 40.4467 45.6889C40.5689 45.5667 40.7246 45.4835 40.8941 45.4498C41.0635 45.4161 41.2392 45.4334 41.3989 45.4995C41.5585 45.5656 41.695 45.6776 41.791 45.8213C41.887 45.965 41.9382 46.1339 41.9382 46.3067C41.9382 46.5384 41.8462 46.7607 41.6823 46.9245C41.5185 47.0884 41.2962 47.1804 41.0645 47.1804Z" fill="#3068D6"/>
<path d="M48.9281 7.86272C48.9281 6.9987 48.6719 6.15408 48.1918 5.43567C47.7118 4.71726 47.0295 4.15733 46.2313 3.82668C45.433 3.49603 44.5546 3.40952 43.7072 3.57808C42.8598 3.74665 42.0814 4.16271 41.4704 4.77367C40.8595 5.38463 40.4434 6.16303 40.2749 7.01045C40.1063 7.85787 40.1928 8.73625 40.5235 9.5345C40.8541 10.3328 41.414 11.015 42.1324 11.4951C42.8509 11.9751 43.6955 12.2313 44.5595 12.2313C45.7177 12.2299 46.828 11.7692 47.647 10.9502C48.466 10.1313 48.9267 9.02091 48.9281 7.86272ZM41.9383 7.86272C41.9383 7.34431 42.0921 6.83753 42.3801 6.40649C42.6681 5.97544 43.0775 5.63948 43.5564 5.4411C44.0354 5.24271 44.5624 5.1908 45.0709 5.29194C45.5793 5.39308 46.0463 5.64271 46.4129 6.00929C46.7795 6.37586 47.0291 6.84291 47.1303 7.35136C47.2314 7.85981 47.1795 8.38684 46.9811 8.86579C46.7827 9.34474 46.4468 9.75411 46.0157 10.0421C45.5847 10.3301 45.0779 10.4839 44.5595 10.4839C43.8643 10.4839 43.1976 10.2077 42.7061 9.71615C42.2145 9.22459 41.9383 8.55789 41.9383 7.86272Z" fill="#3068D6"/>
</svg>
