<svg width="56" height="57" viewBox="0 0 56 57" fill="none" xmlns="http://www.w3.org/2000/svg">
<path d="M51.6903 26.5568C50.8359 26.5561 50.0011 26.7781 49.2942 27.1939C49.0715 26.6241 48.6906 26.1106 48.185 25.6984C47.6794 25.2862 47.0646 24.9881 46.3948 24.8304C45.725 24.6726 45.0207 24.66 44.3439 24.7936C43.6671 24.9273 43.0387 25.2031 42.5138 25.5968C42.2343 25.1783 41.8617 24.8119 41.4175 24.5192C40.9733 24.2264 40.4665 24.0131 39.9263 23.8915C39.3862 23.7699 38.8236 23.7426 38.2712 23.811C37.7188 23.8794 37.1876 24.0423 36.7083 24.2901V5.22539C36.7066 3.99597 36.1424 2.81732 35.1393 1.94798C34.1362 1.07865 32.7762 0.589607 31.3577 0.588135H5.67441C4.25584 0.589607 2.89586 1.07865 1.89278 1.94798C0.889706 2.81732 0.32543 3.99597 0.32373 5.22539V38.6136C0.32373 41.5175 1.92893 43.2509 4.60427 43.2509H25.1006L27.0771 48.0486V55.3077C27.0771 55.5537 27.1899 55.7896 27.3906 55.9636C27.5912 56.1375 27.8634 56.2352 28.1473 56.2352H49.55C49.8338 56.2352 50.106 56.1375 50.3067 55.9636C50.5074 55.7896 50.6201 55.5537 50.6201 55.3077V48.0486L55.5342 36.1234C55.8232 35.4228 55.9709 34.6843 55.9708 33.9402V30.2666C55.9708 29.2827 55.5198 28.3391 54.7171 27.6433C53.9143 26.9476 52.8255 26.5568 51.6903 26.5568ZM4.60427 41.396C4.07456 41.396 2.464 41.396 2.464 38.6136V5.22539C2.464 4.48746 2.80224 3.77976 3.40431 3.25797C4.00638 2.73618 4.82296 2.44304 5.67441 2.44304H31.3577C32.2091 2.44304 33.0257 2.73618 33.6278 3.25797C34.2298 3.77976 34.5681 4.48746 34.5681 5.22539V6.6685C33.9203 6.33469 33.1815 6.15668 32.4278 6.15284C32.4278 5.66089 32.2023 5.18909 31.8009 4.84123C31.3996 4.49337 30.8552 4.29794 30.2875 4.29794H6.74455C6.17691 4.29794 5.63252 4.49337 5.23115 4.84123C4.82977 5.18909 4.60427 5.66089 4.60427 6.15284V9.86264C4.60427 10.3546 4.82977 10.8264 5.23115 11.1743C5.63252 11.5221 6.17691 11.7175 6.74455 11.7175H28.1473V13.5724H20.6563C20.3725 13.5724 20.1003 13.6702 19.8996 13.8441C19.6989 14.018 19.5862 14.2539 19.5862 14.4999V23.7744C19.5862 24.0204 19.6989 24.2563 19.8996 24.4302C20.1003 24.6041 20.3725 24.7019 20.6563 24.7019H21.7264V26.5568H20.6563C20.3725 26.5568 20.1003 26.6545 19.8996 26.8284C19.6989 27.0023 19.5862 27.2382 19.5862 27.4842V38.6136C19.5862 38.8596 19.6989 39.0955 19.8996 39.2694C20.1003 39.4434 20.3725 39.5411 20.6563 39.5411H23.5714L24.3365 41.396H4.60427ZM22.1631 36.1225L22.8073 37.6862H21.7264V33.9402C21.7262 34.684 21.8739 35.4222 22.1631 36.1225ZM21.8763 22.847H21.7264V15.4274H28.1473V18.2097H22.7966V20.0646H28.1473V20.584C27.5804 20.2902 26.942 20.1156 26.2832 20.0743C25.6244 20.0331 24.9637 20.1262 24.3539 20.3462C23.7442 20.5662 23.2024 20.9071 22.7721 21.3414C22.3419 21.7757 22.035 22.2913 21.8763 22.847ZM28.1473 9.86264H6.74455V6.15284H30.2875V6.6685C29.639 6.99159 29.0999 7.45676 28.7243 8.01738C28.3486 8.578 28.1496 9.21436 28.1473 9.86264ZM29.2174 54.3803V48.8156H48.4798V54.3803H29.2174ZM53.8305 33.9402C53.8308 34.4718 53.7255 34.9995 53.5191 35.5002L48.8009 46.9607H28.8964L24.1781 35.4992C23.9717 34.9989 23.8663 34.4715 23.8667 33.9402V23.7679C23.8677 23.276 24.0942 22.8045 24.4962 22.4573C24.8983 22.11 25.4431 21.9154 26.0107 21.9163C26.5784 21.9171 27.1224 22.1134 27.523 22.4618C27.9237 22.8103 28.1483 23.2825 28.1473 23.7744V33.0489H30.2875V9.86264C30.2875 9.37069 30.513 8.89889 30.9144 8.55103C31.3158 8.20317 31.8602 8.00774 32.4278 8.00774C32.9954 8.00774 33.5398 8.20317 33.9412 8.55103C34.3426 8.89889 34.5681 9.37069 34.5681 9.86264V33.0489H36.7083V27.4842C36.7083 26.9923 36.9338 26.5205 37.3352 26.1726C37.7366 25.8247 38.281 25.6293 38.8486 25.6293C39.4163 25.6293 39.9606 25.8247 40.362 26.1726C40.7634 26.5205 40.9889 26.9923 40.9889 27.4842V33.0489H43.1292V28.4117C43.1292 27.9197 43.3547 27.4479 43.756 27.1C44.1574 26.7522 44.7018 26.5568 45.2694 26.5568C45.8371 26.5568 46.3815 26.7522 46.7828 27.1C47.1842 27.4479 47.4097 27.9197 47.4097 28.4117V33.0489H49.55V30.2666C49.55 29.7746 49.7755 29.3028 50.1768 28.955C50.5782 28.6071 51.1226 28.4117 51.6903 28.4117C52.2579 28.4117 52.8023 28.6071 53.2037 28.955C53.605 29.3028 53.8305 29.7746 53.8305 30.2666V33.9402Z" fill="#3068D6"/>
<path d="M16.3755 13.5725H5.67414C5.39032 13.5725 5.11813 13.6702 4.91744 13.8442C4.71675 14.0181 4.604 14.254 4.604 14.5V23.7745C4.604 24.0204 4.71675 24.2563 4.91744 24.4303C5.11813 24.6042 5.39032 24.7019 5.67414 24.7019H16.3755C16.6593 24.7019 16.9315 24.6042 17.1322 24.4303C17.3329 24.2563 17.4456 24.0204 17.4456 23.7745V14.5C17.4456 14.254 17.3329 14.0181 17.1322 13.8442C16.9315 13.6702 16.6593 13.5725 16.3755 13.5725ZM15.3054 22.847H6.74428V15.4274H15.3054V22.847Z" fill="#3068D6"/>
<path d="M9.95521 21.9194H12.0955V20.0645H14.2358V18.2096H12.0955V16.3547H9.95521V18.2096H7.81494V20.0645H9.95521V21.9194Z" fill="#3068D6"/>
<path d="M16.3755 26.5566H5.67414C5.39032 26.5566 5.11813 26.6544 4.91744 26.8283C4.71675 27.0022 4.604 27.2381 4.604 27.4841V38.6135C4.604 38.8595 4.71675 39.0954 4.91744 39.2693C5.11813 39.4432 5.39032 39.541 5.67414 39.541H16.3755C16.6593 39.541 16.9315 39.4432 17.1322 39.2693C17.3329 39.0954 17.4456 38.8595 17.4456 38.6135V27.4841C17.4456 27.2381 17.3329 27.0022 17.1322 26.8283C16.9315 26.6544 16.6593 26.5566 16.3755 26.5566ZM15.3054 37.6861H6.74428V28.4115H15.3054V37.6861Z" fill="#3068D6"/>
<path d="M9.77533 36.3464L11.0252 34.7215L12.2752 36.3464L14.0559 35.3169L12.3116 33.0493L14.0559 30.7817L12.2752 29.7522L11.0252 31.3771L9.77533 29.7522L7.99463 30.7817L9.73895 33.0493L7.99463 35.3169L9.77533 36.3464Z" fill="#3068D6"/>
</svg>
