<svg width="56" height="56" viewBox="0 0 56 56" fill="none" xmlns="http://www.w3.org/2000/svg">
<path d="M52.8647 25.9686H33.3882V9.27451H39.8804C40.1264 9.27451 40.3623 9.1768 40.5362 9.00287C40.7101 8.82894 40.8078 8.59303 40.8078 8.34706V4.63726C40.8064 3.40783 40.3173 2.22918 39.448 1.35985C38.5787 0.490512 37.4 0.00147266 36.1706 0H8.34706C7.11764 0.00147266 5.93899 0.490512 5.06965 1.35985C4.20032 2.22918 3.71128 3.40783 3.7098 4.63726V44.5177H0.927451C0.681476 44.5177 0.445575 44.6154 0.271644 44.7893C0.0977133 44.9632 0 45.1991 0 45.4451V47.3C0.00147266 48.5294 0.490512 49.7081 1.35985 50.5774C2.22918 51.4467 3.40783 51.9358 4.63726 51.9373H25.9686V52.8647C25.9686 53.6026 26.2618 54.3103 26.7836 54.8321C27.3054 55.3539 28.0131 55.6471 28.751 55.6471H52.8647C53.6026 55.6471 54.3103 55.3539 54.8321 54.8321C55.3539 54.3103 55.6471 53.6026 55.6471 52.8647V28.751C55.6471 28.0131 55.3539 27.3054 54.8321 26.7836C54.3103 26.2618 53.6026 25.9686 52.8647 25.9686ZM53.7922 28.751V31.5333H44.5177V27.8235H52.8647C53.1107 27.8235 53.3466 27.9212 53.5205 28.0952C53.6945 28.2691 53.7922 28.505 53.7922 28.751ZM37.098 35.2431H27.8235V33.3882H37.098V35.2431ZM37.098 31.5333H27.8235V28.751C27.8235 28.505 27.9212 28.2691 28.0952 28.0952C28.2691 27.9212 28.505 27.8235 28.751 27.8235H37.098V31.5333ZM38.9529 27.8235H42.6628V38.1479L41.3226 37.2539C41.1702 37.1522 40.9911 37.0979 40.8078 37.0979C40.6246 37.0979 40.4455 37.1522 40.2931 37.2539L38.9529 38.1479V27.8235ZM44.5177 33.3882H53.7922V35.2431H44.5177V33.3882ZM38.9529 4.63726V7.41961H33.3882V4.63726C33.3882 3.89933 33.6814 3.19163 34.2032 2.66983C34.725 2.14804 35.4327 1.8549 36.1706 1.8549C36.9085 1.8549 37.6162 2.14804 38.138 2.66983C38.6598 3.19163 38.9529 3.89933 38.9529 4.63726ZM5.56471 4.63726C5.56471 3.89933 5.85785 3.19163 6.37964 2.66983C6.90143 2.14804 7.60913 1.8549 8.34706 1.8549H32.4849C31.8711 2.65287 31.5367 3.63054 31.5333 4.63726V25.9686H28.751C28.0131 25.9686 27.3054 26.2618 26.7836 26.7836C26.2618 27.3054 25.9686 28.0131 25.9686 28.751V44.5177H5.56471V4.63726ZM4.63726 50.0824C3.89933 50.0824 3.19163 49.7892 2.66983 49.2674C2.14804 48.7456 1.8549 48.0379 1.8549 47.3V46.3726H25.9686V50.0824H4.63726ZM52.8647 53.7922H28.751C28.505 53.7922 28.2691 53.6945 28.0952 53.5205C27.9212 53.3466 27.8235 53.1107 27.8235 52.8647V37.098H37.098V39.8804C37.098 40.0483 37.1436 40.2131 37.2299 40.3571C37.3161 40.5012 37.4399 40.6191 37.588 40.6983C37.736 40.7775 37.9028 40.815 38.0705 40.8069C38.2382 40.7987 38.4006 40.7452 38.5402 40.652L40.8078 39.1384L43.0755 40.6502C43.215 40.7433 43.3772 40.7968 43.5447 40.805C43.7123 40.8132 43.8789 40.7759 44.0269 40.6969C44.1749 40.6179 44.2987 40.5002 44.3851 40.3565C44.4715 40.2127 44.5173 40.0481 44.5177 39.8804V37.098H53.7922V52.8647C53.7922 53.1107 53.6945 53.3466 53.5205 53.5205C53.3466 53.6945 53.1107 53.7922 52.8647 53.7922Z" fill="#3068D6"/>
<path d="M50.0825 43.5901H51.9374V45.445H50.0825V43.5901Z" fill="#3068D6"/>
<path d="M50.0822 50.0824H47.2998V51.9373H51.0096C51.2556 51.9373 51.4915 51.8396 51.6654 51.6657C51.8393 51.4917 51.9371 51.2558 51.9371 51.0099V47.3H50.0822V50.0824Z" fill="#3068D6"/>
<path d="M9.27441 5.5647H12.9842V7.4196H9.27441V5.5647Z" fill="#3068D6"/>
<path d="M14.8394 5.5647H22.259V7.4196H14.8394V5.5647Z" fill="#3068D6"/>
<path d="M24.1138 5.5647H27.8236V7.4196H24.1138V5.5647Z" fill="#3068D6"/>
<path d="M9.27441 11.1294H27.8234V12.9843H9.27441V11.1294Z" fill="#3068D6"/>
<path d="M9.27441 16.6941H27.8234V18.549H9.27441V16.6941Z" fill="#3068D6"/>
<path d="M9.27441 22.2588H27.8234V24.1137H9.27441V22.2588Z" fill="#3068D6"/>
<path d="M9.27441 27.8235H22.2587V29.6784H9.27441V27.8235Z" fill="#3068D6"/>
<path d="M9.27441 33.3882H22.2587V35.2431H9.27441V33.3882Z" fill="#3068D6"/>
<path d="M9.27441 38.9529H22.2587V40.8078H9.27441V38.9529Z" fill="#3068D6"/>
</svg>
