<svg width="56" height="56" viewBox="0 0 56 56" fill="none" xmlns="http://www.w3.org/2000/svg">
<path d="M20.5559 21.3314H28.0307C28.2786 21.3314 28.5162 21.2337 28.6914 21.0598C28.8667 20.8858 28.9651 20.6499 28.9651 20.4039V12.9843C28.9651 12.7384 28.8667 12.5025 28.6914 12.3285C28.5162 12.1546 28.2786 12.0569 28.0307 12.0569H20.5559C20.3081 12.0569 20.0705 12.1546 19.8952 12.3285C19.72 12.5025 19.6216 12.7384 19.6216 12.9843V20.4039C19.6216 20.6499 19.72 20.8858 19.8952 21.0598C20.0705 21.2337 20.3081 21.3314 20.5559 21.3314ZM21.4903 13.9118H27.0964V19.4765H21.4903V13.9118Z" fill="#3068D6"/>
<path d="M28.0307 32.4608C28.2786 32.4608 28.5162 32.3631 28.6914 32.1891C28.8667 32.0152 28.9651 31.7793 28.9651 31.5333V24.1137C28.9651 23.8678 28.8667 23.6319 28.6914 23.4579C28.5162 23.284 28.2786 23.1863 28.0307 23.1863H20.5559C20.3081 23.1863 20.0705 23.284 19.8952 23.4579C19.72 23.6319 19.6216 23.8678 19.6216 24.1137V31.5333C19.6216 31.7793 19.72 32.0152 19.8952 32.1891C20.0705 32.3631 20.3081 32.4608 20.5559 32.4608H28.0307ZM21.4903 25.0412H27.0964V30.6059H21.4903V25.0412Z" fill="#3068D6"/>
<path d="M30.8335 12.0569H42.0457V13.9118H30.8335V12.0569Z" fill="#3068D6"/>
<path d="M30.8335 15.7666H42.0457V17.6215H30.8335V15.7666Z" fill="#3068D6"/>
<path d="M30.8335 23.1863H38.3083V25.0412H30.8335V23.1863Z" fill="#3068D6"/>
<path d="M30.8335 26.8962H36.4396V28.7511H30.8335V26.8962Z" fill="#3068D6"/>
<path d="M54.8259 16.9928C54.2919 16.4871 53.5822 16.205 52.8441 16.205C52.1061 16.205 51.3964 16.4871 50.8624 16.9928L50.455 17.3971V6.49216C50.455 5.75423 50.1597 5.04653 49.634 4.52474C49.1083 4.00294 48.3954 3.7098 47.6519 3.7098H39.9716L39.5689 2.10717C39.4172 1.50517 39.0671 0.970786 38.5742 0.58898C38.0814 0.207175 37.4741 -0.000138683 36.849 6.9604e-08H24.8183C24.1931 -0.000138683 23.5858 0.207175 23.093 0.58898C22.6002 0.970786 22.2501 1.50517 22.0984 2.10717L21.6957 3.7098H14.0153C13.2719 3.7098 12.5589 4.00294 12.0332 4.52474C11.5075 5.04653 11.2122 5.75423 11.2122 6.49216V35.2431H2.80306C2.05964 35.2431 1.34667 35.5363 0.820996 36.0581C0.295321 36.5799 0 37.2876 0 38.0255V52.8647C0 53.6026 0.295321 54.3103 0.820996 54.8321C1.34667 55.3539 2.05964 55.6471 2.80306 55.6471H47.6519C48.3954 55.6471 49.1083 55.3539 49.634 54.8321C50.1597 54.3103 50.455 53.6026 50.455 52.8647V26.577L51.522 25.5188C51.6972 25.3449 51.7956 25.109 51.7956 24.8631C51.7956 24.6172 51.6972 24.3813 51.522 24.2074L54.8259 20.9279C55.0862 20.6696 55.2928 20.3628 55.4336 20.0252C55.5745 19.6876 55.6471 19.3258 55.6471 18.9603C55.6471 18.5949 55.5745 18.2331 55.4336 17.8955C55.2928 17.5579 55.0862 17.2511 54.8259 16.9928ZM48.2182 26.1745L45.5758 23.5517L46.897 22.2393L49.5403 24.8631L48.2182 26.1745ZM9.34352 37.098H11.2122V43.2062L10.9385 42.9345C10.7632 42.7606 10.5256 42.6629 10.2779 42.6629C10.0301 42.6629 9.7925 42.7606 9.61728 42.9345L9.34352 43.2062V37.098ZM13.0809 37.098H17.7527C18.0005 37.098 18.2381 37.1958 18.4134 37.3697C18.5886 37.5436 18.687 37.7795 18.687 38.0255V40.8078H13.0809V37.098ZM17.7527 35.2431H15.884V8.34706H20.58C20.5717 8.55118 20.6329 8.75213 20.7538 8.91744C20.8411 9.02858 20.9528 9.1185 21.0804 9.18037C21.208 9.24224 21.3481 9.27444 21.4901 9.27451H40.1771C40.3191 9.27444 40.4592 9.24224 40.5868 9.18037C40.7144 9.1185 40.8261 9.02858 40.9134 8.91744C41.0343 8.75213 41.0956 8.55118 41.0872 8.34706H45.7832V20.722L43.5941 22.896C43.4189 23.0699 43.3205 23.3058 43.3205 23.5517C43.3205 23.7976 43.4189 24.0335 43.5941 24.2074L25.3677 42.2973L25.3835 42.3131C25.3095 42.3778 25.2464 42.4539 25.1967 42.5385L22.5543 47.7851C22.4664 47.9592 22.436 48.1564 22.4673 48.3487C22.4987 48.541 22.5902 48.7186 22.729 48.8563C22.8678 48.994 23.0467 49.0849 23.2404 49.116C23.4341 49.1472 23.6328 49.117 23.8082 49.0297L29.0938 46.4069C29.1787 46.3574 29.255 46.2947 29.32 46.2214L29.3368 46.2371L45.7832 29.9029V51.0098H20.5557V38.0255C20.5557 37.2876 20.2604 36.5799 19.7347 36.0581C19.2091 35.5363 18.4961 35.2431 17.7527 35.2431ZM28.6715 44.2654L27.3503 42.953L44.9162 25.517L46.2373 26.8284L28.6715 44.2654ZM26.2852 44.5176L27.0943 45.3218L25.4751 46.1259L26.2852 44.5176ZM47.6519 5.56471C47.8997 5.56471 48.1374 5.66242 48.3126 5.83635C48.4879 6.01028 48.5863 6.24618 48.5863 6.49216V19.252L47.6519 20.1795V7.41961C47.6519 7.17363 47.5535 6.93773 47.3783 6.7638C47.2031 6.58987 46.9654 6.49216 46.7176 6.49216H40.6723L40.4387 5.56471H47.6519ZM23.911 2.55791C23.9615 2.35703 24.0782 2.17868 24.2426 2.05128C24.407 1.92388 24.6097 1.85475 24.8183 1.8549H36.849C37.0575 1.85475 37.2602 1.92388 37.4246 2.05128C37.589 2.17868 37.7057 2.35703 37.7562 2.55791L38.9812 7.41961H22.6861L23.911 2.55791ZM13.0809 6.49216C13.0809 6.24618 13.1794 6.01028 13.3546 5.83635C13.5298 5.66242 13.7675 5.56471 14.0153 5.56471H21.2285L20.9949 6.49216H14.9496C14.7018 6.49216 14.4642 6.58987 14.2889 6.7638C14.1137 6.93773 14.0153 7.17363 14.0153 7.41961V35.2431H13.0809V6.49216ZM2.80306 37.098H7.47481V40.8078H1.8687V38.0255C1.8687 37.7795 1.96714 37.5436 2.14237 37.3697C2.31759 37.1958 2.55525 37.098 2.80306 37.098ZM2.80306 53.7922C2.55525 53.7922 2.31759 53.6944 2.14237 53.5205C1.96714 53.3466 1.8687 53.1107 1.8687 52.8647V42.6627H7.47481V45.4451C7.47485 45.6285 7.52967 45.8078 7.63234 45.9603C7.73502 46.1127 7.88093 46.2316 8.05163 46.3018C8.22234 46.3719 8.41017 46.3903 8.59139 46.3545C8.77261 46.3188 8.93908 46.2305 9.06975 46.1008L10.2779 44.9016L11.486 46.1008C11.6167 46.2305 11.7831 46.3188 11.9643 46.3545C12.1456 46.3903 12.3334 46.3719 12.5041 46.3018C12.6748 46.2316 12.8207 46.1127 12.9234 45.9603C13.0261 45.8078 13.0809 45.6285 13.0809 45.4451V42.6627H18.687V52.8647C18.687 53.1107 18.5886 53.3466 18.4134 53.5205C18.2381 53.6944 18.0005 53.7922 17.7527 53.7922H2.80306ZM47.6519 53.7922H20.3838C20.4945 53.4951 20.5526 53.1814 20.5557 52.8647H46.7176C46.9654 52.8647 47.2031 52.767 47.3783 52.5931C47.5535 52.4191 47.6519 52.1832 47.6519 51.9373V28.2047C47.7792 28.312 47.9346 28.3814 48.0999 28.4047C48.2653 28.428 48.4339 28.4043 48.5863 28.3364V52.8647C48.5863 53.1107 48.4879 53.3466 48.3126 53.5205C48.1374 53.6944 47.8997 53.7922 47.6519 53.7922ZM53.5047 19.6165L50.2009 22.8951L48.8787 21.5836L52.1836 18.3042C52.3616 18.1358 52.5982 18.0418 52.8441 18.0418C53.0901 18.0418 53.3266 18.1358 53.5047 18.3042C53.5916 18.3903 53.6605 18.4926 53.7075 18.6052C53.7546 18.7178 53.7788 18.8385 53.7788 18.9603C53.7788 19.0822 53.7546 19.2029 53.7075 19.3155C53.6605 19.4281 53.5916 19.5304 53.5047 19.6165Z" fill="#3068D6"/>
<path d="M31.7681 3.70972H35.5055V5.56462H31.7681V3.70972Z" fill="#3068D6"/>
<path d="M26.1616 3.70972H29.899V5.56462H26.1616V3.70972Z" fill="#3068D6"/>
</svg>
