<svg width="56" height="56" viewBox="0 0 56 56" fill="none" xmlns="http://www.w3.org/2000/svg">
<path d="M54.8959 35.4197H39.1292V1.10397C39.1292 0.931726 39.0812 0.76289 38.9907 0.616375C38.9001 0.46986 38.7706 0.351455 38.6165 0.274428C38.4625 0.1974 38.29 0.164794 38.1185 0.180262C37.9469 0.19573 37.7831 0.258661 37.6453 0.362004L30.8693 5.44444L25.8759 0.448257C25.702 0.274387 25.4662 0.176712 25.2202 0.176712C24.9743 0.176712 24.7384 0.274387 24.5645 0.448257L19.6527 5.35725L14.7437 0.448257C14.5698 0.274387 14.334 0.176712 14.088 0.176712C13.8421 0.176712 13.6062 0.274387 13.4323 0.448257L8.43615 5.44444L1.66019 0.362004C1.5224 0.258661 1.35855 0.19573 1.18701 0.180262C1.01547 0.164794 0.843007 0.1974 0.688952 0.274428C0.534897 0.351455 0.405335 0.46986 0.314784 0.616375C0.224232 0.76289 0.17627 0.931726 0.17627 1.10397V49.3314C0.17627 49.5774 0.273983 49.8133 0.447914 49.9872C0.621844 50.1612 0.857745 50.2589 1.10372 50.2589H16.8704V54.8961C16.8704 55.1421 16.9681 55.378 17.142 55.5519C17.316 55.7259 17.5519 55.8236 17.7978 55.8236H54.8959C55.1418 55.8236 55.3778 55.7259 55.5517 55.5519C55.7256 55.378 55.8233 55.1421 55.8233 54.8961V36.3471C55.8233 36.1011 55.7256 35.8652 55.5517 35.6913C55.3778 35.5174 55.1418 35.4197 54.8959 35.4197ZM16.8704 36.3471V48.404H2.03117V2.95887L7.96686 7.41063C8.14546 7.54454 8.36637 7.60954 8.58904 7.5937C8.81171 7.57785 9.02119 7.48223 9.17904 7.32438L14.088 2.41538L18.997 7.32438C19.171 7.49825 19.4068 7.59592 19.6527 7.59592C19.8987 7.59592 20.1345 7.49825 20.3084 7.32438L25.2174 2.41538L30.1237 7.32438C30.2817 7.48296 30.4917 7.57905 30.715 7.5949C30.9383 7.61076 31.1598 7.54531 31.3386 7.41063L37.2743 2.95887V35.4197H17.7978C17.5519 35.4197 17.316 35.5174 17.142 35.6913C16.9681 35.8652 16.8704 36.1011 16.8704 36.3471ZM53.9684 53.9687H18.7253V37.2746H53.9684V53.9687Z" fill="#3068D6"/>
<path d="M22.435 40.985H23.3624V39.1301H21.5075C21.2616 39.1301 21.0257 39.2278 20.8517 39.4018C20.6778 39.5757 20.5801 39.8116 20.5801 40.0576V41.9125H22.435V40.985Z" fill="#3068D6"/>
<path d="M21.5075 52.1144H23.3624V50.2595H22.435V49.332H20.5801V51.1869C20.5801 51.4329 20.6778 51.6688 20.8517 51.8427C21.0257 52.0167 21.2616 52.1144 21.5075 52.1144Z" fill="#3068D6"/>
<path d="M50.2585 41.9125H52.1134V40.0576C52.1134 39.8116 52.0157 39.5757 51.8418 39.4018C51.6678 39.2278 51.4319 39.1301 51.186 39.1301H49.3311V40.985H50.2585V41.9125Z" fill="#3068D6"/>
<path d="M52.1134 51.1869V49.332H50.2585V50.2595H49.3311V52.1144H51.186C51.4319 52.1144 51.6678 52.0167 51.8418 51.8427C52.0157 51.6688 52.1134 51.4329 52.1134 51.1869Z" fill="#3068D6"/>
<path d="M36.3466 52.1144C37.6307 52.1144 38.8859 51.7337 39.9535 51.0203C41.0211 50.307 41.8532 49.293 42.3446 48.1067C42.836 46.9204 42.9646 45.6151 42.7141 44.3557C42.4636 43.0964 41.8452 41.9396 40.9373 41.0316C40.0294 40.1237 38.8726 39.5054 37.6132 39.2549C36.3538 39.0044 35.0485 39.1329 33.8622 39.6243C32.6759 40.1157 31.662 40.9478 30.9486 42.0154C30.2353 43.0831 29.8545 44.3383 29.8545 45.6223C29.8565 47.3435 30.5411 48.9937 31.7582 50.2108C32.9753 51.4279 34.6254 52.1125 36.3466 52.1144ZM36.3466 40.985C37.2638 40.985 38.1604 41.257 38.923 41.7666C39.6856 42.2761 40.2799 43.0003 40.6309 43.8477C40.9819 44.695 41.0737 45.6274 40.8948 46.527C40.7159 47.4265 40.2742 48.2528 39.6257 48.9013C38.9771 49.5499 38.1509 49.9915 37.2513 50.1704C36.3518 50.3494 35.4194 50.2575 34.572 49.9066C33.7247 49.5556 33.0005 48.9612 32.4909 48.1986C31.9814 47.436 31.7094 46.5395 31.7094 45.6223C31.7109 44.3929 32.1999 43.2142 33.0692 42.3449C33.9386 41.4755 35.1172 40.9865 36.3466 40.985Z" fill="#3068D6"/>
<path d="M32.6368 11.3062H6.66817C6.4222 11.3062 6.1863 11.4039 6.01237 11.5778C5.83844 11.7517 5.74072 11.9876 5.74072 12.2336V15.9434C5.74072 16.1894 5.83844 16.4253 6.01237 16.5992C6.1863 16.7731 6.4222 16.8709 6.66817 16.8709H32.6368C32.8828 16.8709 33.1187 16.7731 33.2926 16.5992C33.4665 16.4253 33.5642 16.1894 33.5642 15.9434V12.2336C33.5642 11.9876 33.4665 11.7517 33.2926 11.5778C33.1187 11.4039 32.8828 11.3062 32.6368 11.3062ZM31.7093 15.016H7.59562V13.1611H31.7093V15.016Z" fill="#3068D6"/>
<path d="M5.74072 20.5806H33.5642V22.4355H5.74072V20.5806Z" fill="#3068D6"/>
<path d="M5.74072 26.1448H33.5642V27.9997H5.74072V26.1448Z" fill="#3068D6"/>
<path d="M5.74072 31.7102H33.5642V33.5651H5.74072V31.7102Z" fill="#3068D6"/>
<path d="M5.74072 37.2744H15.0152V39.1293H5.74072V37.2744Z" fill="#3068D6"/>
<path d="M5.74072 42.8389H15.0152V44.6938H5.74072V42.8389Z" fill="#3068D6"/>
</svg>
